<?xml version="1.0" encoding="UTF-8" standalone="no"?>
<!DOCTYPE svg PUBLIC "-//W3C//DTD SVG 1.1//EN"
 "http://www.w3.org/Graphics/SVG/1.1/DTD/svg11.dtd">
<!-- Generated by graphviz version 3.0.0 (20220226.1711)
 -->
<!-- Pages: 1 -->
<svg width="360pt" height="413pt"
 viewBox="0.00 0.00 360.00 413.00" xmlns="http://www.w3.org/2000/svg" xmlns:xlink="http://www.w3.org/1999/xlink">
<g id="graph0" class="graph" transform="scale(1 1) rotate(0) translate(4 409)">
<polygon fill="white" stroke="transparent" points="-4,4 -4,-409 356,-409 356,4 -4,4"/>
<!-- 1 -->
<g id="node1" class="node">
<title>1</title>
<ellipse fill="none" stroke="black" cx="231" cy="-387" rx="27" ry="18"/>
<text text-anchor="middle" x="231" y="-383.3" font-family="Times New Roman,serif" font-size="14.00">1</text>
</g>
<!-- 3 -->
<g id="node3" class="node">
<title>3</title>
<ellipse fill="none" stroke="black" cx="150" cy="-300" rx="27" ry="18"/>
<text text-anchor="middle" x="150" y="-296.3" font-family="Times New Roman,serif" font-size="14.00">3</text>
</g>
<!-- 1&#45;&gt;3 -->
<g id="edge1" class="edge">
<title>1&#45;&gt;3</title>
<path fill="none" stroke="black" d="M216.89,-371.19C204.23,-357.91 185.48,-338.23 171.04,-323.08"/>
<polygon fill="black" stroke="black" points="173.38,-320.46 163.95,-315.64 168.31,-325.29 173.38,-320.46"/>
<text text-anchor="middle" x="198.5" y="-339.8" font-family="Times New Roman,serif" font-size="14.00">1</text>
</g>
<!-- 4 -->
<g id="node4" class="node">
<title>4</title>
<ellipse fill="none" stroke="black" cx="228" cy="-192" rx="27" ry="18"/>
<text text-anchor="middle" x="228" y="-188.3" font-family="Times New Roman,serif" font-size="14.00">4</text>
</g>
<!-- 1&#45;&gt;4 -->
<g id="edge2" class="edge">
<title>1&#45;&gt;4</title>
<path fill="none" stroke="black" d="M230.73,-368.87C230.21,-335.32 229.05,-260.71 228.42,-220.29"/>
<polygon fill="black" stroke="black" points="231.92,-220.03 228.27,-210.09 224.92,-220.14 231.92,-220.03"/>
<text text-anchor="middle" x="232.5" y="-296.3" font-family="Times New Roman,serif" font-size="14.00">4</text>
</g>
<!-- 10 -->
<g id="node10" class="node">
<title>10</title>
<ellipse fill="none" stroke="black" cx="325" cy="-246" rx="27" ry="18"/>
<text text-anchor="middle" x="325" y="-242.3" font-family="Times New Roman,serif" font-size="14.00">10</text>
</g>
<!-- 1&#45;&gt;10 -->
<g id="edge3" class="edge">
<title>1&#45;&gt;10</title>
<path fill="none" stroke="black" d="M255.26,-378.62C269.37,-373.14 286.41,-364.28 297,-351 314.51,-329.04 321.11,-297.04 323.58,-274.35"/>
<polygon fill="black" stroke="black" points="327.07,-274.62 324.47,-264.35 320.1,-274 327.07,-274.62"/>
<text text-anchor="middle" x="309.5" y="-339.8" font-family="Times New Roman,serif" font-size="14.00">1</text>
</g>
<!-- 2 -->
<g id="node2" class="node">
<title>2</title>
<ellipse fill="none" stroke="black" cx="27" cy="-192" rx="27" ry="18"/>
<text text-anchor="middle" x="27" y="-188.3" font-family="Times New Roman,serif" font-size="14.00">2</text>
</g>
<!-- 2&#45;&gt;1 -->
<g id="edge4" class="edge">
<title>2&#45;&gt;1</title>
<path fill="none" stroke="black" d="M27.81,-210.21C29.21,-225.34 32.96,-247.48 43,-264 78.51,-322.47 153.91,-358.17 197.67,-374.8"/>
<polygon fill="black" stroke="black" points="196.69,-378.17 207.28,-378.34 199.11,-371.6 196.69,-378.17"/>
<text text-anchor="middle" x="96.5" y="-296.3" font-family="Times New Roman,serif" font-size="14.00">4</text>
</g>
<!-- 7 -->
<g id="node7" class="node">
<title>7</title>
<ellipse fill="none" stroke="black" cx="74" cy="-105" rx="27" ry="18"/>
<text text-anchor="middle" x="74" y="-101.3" font-family="Times New Roman,serif" font-size="14.00">7</text>
</g>
<!-- 2&#45;&gt;7 -->
<g id="edge5" class="edge">
<title>2&#45;&gt;7</title>
<path fill="none" stroke="black" d="M36.06,-174.61C42.87,-162.3 52.31,-145.23 60.07,-131.19"/>
<polygon fill="black" stroke="black" points="63.35,-132.5 65.13,-122.05 57.22,-129.11 63.35,-132.5"/>
<text text-anchor="middle" x="57.5" y="-144.8" font-family="Times New Roman,serif" font-size="14.00">3</text>
</g>
<!-- 3&#45;&gt;2 -->
<g id="edge6" class="edge">
<title>3&#45;&gt;2</title>
<path fill="none" stroke="black" d="M125.09,-292.69C107.81,-287.32 85.09,-278.18 69,-264 61.34,-257.25 49.18,-235.99 39.91,-218.48"/>
<polygon fill="black" stroke="black" points="42.83,-216.51 35.11,-209.25 36.62,-219.74 42.83,-216.51"/>
<text text-anchor="middle" x="72.5" y="-242.3" font-family="Times New Roman,serif" font-size="14.00">2</text>
</g>
<!-- 3&#45;&gt;4 -->
<g id="edge7" class="edge">
<title>3&#45;&gt;4</title>
<path fill="none" stroke="black" d="M166.49,-285.28C173.29,-279.17 180.97,-271.63 187,-264 198.11,-249.93 208.21,-232.52 215.61,-218.46"/>
<polygon fill="black" stroke="black" points="218.83,-219.84 220.28,-209.35 212.6,-216.65 218.83,-219.84"/>
<text text-anchor="middle" x="213.5" y="-242.3" font-family="Times New Roman,serif" font-size="14.00">2</text>
</g>
<!-- 6 -->
<g id="node6" class="node">
<title>6</title>
<ellipse fill="none" stroke="black" cx="218" cy="-105" rx="27" ry="18"/>
<text text-anchor="middle" x="218" y="-101.3" font-family="Times New Roman,serif" font-size="14.00">6</text>
</g>
<!-- 3&#45;&gt;6 -->
<g id="edge8" class="edge">
<title>3&#45;&gt;6</title>
<path fill="none" stroke="black" d="M156.01,-282.35C158.02,-276.57 160.2,-270.03 162,-264 173.82,-224.44 170.8,-212.77 185,-174 190.36,-159.37 197.84,-143.68 204.33,-131.07"/>
<polygon fill="black" stroke="black" points="207.5,-132.57 209.05,-122.09 201.3,-129.31 207.5,-132.57"/>
<text text-anchor="middle" x="188.5" y="-188.3" font-family="Times New Roman,serif" font-size="14.00">2</text>
</g>
<!-- 3&#45;&gt;7 -->
<g id="edge9" class="edge">
<title>3&#45;&gt;7</title>
<path fill="none" stroke="black" d="M143.39,-282.21C130.1,-248.48 100.09,-172.27 84.25,-132.02"/>
<polygon fill="black" stroke="black" points="87.46,-130.64 80.54,-122.61 80.95,-133.2 87.46,-130.64"/>
<text text-anchor="middle" x="118.5" y="-188.3" font-family="Times New Roman,serif" font-size="14.00">3</text>
</g>
<!-- 5 -->
<g id="node5" class="node">
<title>5</title>
<ellipse fill="none" stroke="black" cx="290" cy="-105" rx="27" ry="18"/>
<text text-anchor="middle" x="290" y="-101.3" font-family="Times New Roman,serif" font-size="14.00">5</text>
</g>
<!-- 4&#45;&gt;5 -->
<g id="edge10" class="edge">
<title>4&#45;&gt;5</title>
<path fill="none" stroke="black" d="M238.41,-175.02C244.99,-165.09 253.77,-152.15 262,-141 264.91,-137.06 268.08,-132.94 271.21,-128.97"/>
<polygon fill="black" stroke="black" points="273.96,-131.13 277.47,-121.13 268.5,-126.76 273.96,-131.13"/>
<text text-anchor="middle" x="265.5" y="-144.8" font-family="Times New Roman,serif" font-size="14.00">2</text>
</g>
<!-- 4&#45;&gt;6 -->
<g id="edge11" class="edge">
<title>4&#45;&gt;6</title>
<path fill="none" stroke="black" d="M225.98,-173.8C224.61,-162.16 222.77,-146.55 221.2,-133.24"/>
<polygon fill="black" stroke="black" points="224.67,-132.7 220.02,-123.18 217.71,-133.52 224.67,-132.7"/>
<text text-anchor="middle" x="226.5" y="-144.8" font-family="Times New Roman,serif" font-size="14.00">4</text>
</g>
<!-- 9 -->
<g id="node9" class="node">
<title>9</title>
<ellipse fill="none" stroke="black" cx="146" cy="-105" rx="27" ry="18"/>
<text text-anchor="middle" x="146" y="-101.3" font-family="Times New Roman,serif" font-size="14.00">9</text>
</g>
<!-- 4&#45;&gt;9 -->
<g id="edge12" class="edge">
<title>4&#45;&gt;9</title>
<path fill="none" stroke="black" d="M213.72,-176.19C200.9,-162.91 181.91,-143.23 167.3,-128.08"/>
<polygon fill="black" stroke="black" points="169.58,-125.4 160.12,-120.64 164.54,-130.26 169.58,-125.4"/>
<text text-anchor="middle" x="194.5" y="-144.8" font-family="Times New Roman,serif" font-size="14.00">4</text>
</g>
<!-- 5&#45;&gt;1 -->
<g id="edge13" class="edge">
<title>5&#45;&gt;1</title>
<path fill="none" stroke="black" d="M287.8,-123.16C282.42,-163.43 267.31,-266.97 244,-351 243.2,-353.87 242.28,-356.84 241.29,-359.77"/>
<polygon fill="black" stroke="black" points="237.89,-358.86 237.8,-369.46 244.48,-361.23 237.89,-358.86"/>
<text text-anchor="middle" x="274.5" y="-242.3" font-family="Times New Roman,serif" font-size="14.00">5</text>
</g>
<!-- 8 -->
<g id="node8" class="node">
<title>8</title>
<ellipse fill="none" stroke="black" cx="38" cy="-18" rx="27" ry="18"/>
<text text-anchor="middle" x="38" y="-14.3" font-family="Times New Roman,serif" font-size="14.00">8</text>
</g>
<!-- 7&#45;&gt;8 -->
<g id="edge14" class="edge">
<title>7&#45;&gt;8</title>
<path fill="none" stroke="black" d="M66.89,-87.21C61.78,-75.14 54.79,-58.64 48.97,-44.89"/>
<polygon fill="black" stroke="black" points="52.1,-43.31 44.98,-35.47 45.65,-46.04 52.1,-43.31"/>
<text text-anchor="middle" x="62.5" y="-57.8" font-family="Times New Roman,serif" font-size="14.00">2</text>
</g>
<!-- 8&#45;&gt;2 -->
<g id="edge15" class="edge">
<title>8&#45;&gt;2</title>
<path fill="none" stroke="black" d="M35.94,-36.02C34.35,-49.76 32.23,-69.6 31,-87 29.17,-112.94 28.13,-142.58 27.58,-163.57"/>
<polygon fill="black" stroke="black" points="24.07,-163.6 27.33,-173.68 31.07,-163.77 24.07,-163.6"/>
<text text-anchor="middle" x="34.5" y="-101.3" font-family="Times New Roman,serif" font-size="14.00">5</text>
</g>
<!-- 9&#45;&gt;3 -->
<g id="edge16" class="edge">
<title>9&#45;&gt;3</title>
<path fill="none" stroke="black" d="M146.04,-123.3C146.12,-143.94 146.34,-179.49 147,-210 147.45,-230.74 148.25,-254.18 148.91,-271.8"/>
<polygon fill="black" stroke="black" points="145.42,-272.08 149.3,-281.94 152.42,-271.81 145.42,-272.08"/>
<text text-anchor="middle" x="150.5" y="-188.3" font-family="Times New Roman,serif" font-size="14.00">5</text>
</g>
<!-- 10&#45;&gt;5 -->
<g id="edge17" class="edge">
<title>10&#45;&gt;5</title>
<path fill="none" stroke="black" d="M320.71,-227.96C314.75,-204.3 303.91,-161.26 296.84,-133.15"/>
<polygon fill="black" stroke="black" points="300.16,-132.03 294.33,-123.18 293.37,-133.74 300.16,-132.03"/>
<text text-anchor="middle" x="319.5" y="-188.3" font-family="Times New Roman,serif" font-size="14.00">1</text>
</g>
</g>
</svg>
