<?xml version="1.0" encoding="UTF-8" standalone="no"?>
<!DOCTYPE svg PUBLIC "-//W3C//DTD SVG 1.1//EN"
 "http://www.w3.org/Graphics/SVG/1.1/DTD/svg11.dtd">
<!-- Generated by graphviz version 3.0.0 (20220226.1711)
 -->
<!-- Pages: 1 -->
<svg width="357pt" height="674pt"
 viewBox="0.00 0.00 357.00 674.00" xmlns="http://www.w3.org/2000/svg" xmlns:xlink="http://www.w3.org/1999/xlink">
<g id="graph0" class="graph" transform="scale(1 1) rotate(0) translate(4 670)">
<polygon fill="white" stroke="transparent" points="-4,4 -4,-670 353,-670 353,4 -4,4"/>
<!-- 1 -->
<g id="node1" class="node">
<title>1</title>
<ellipse fill="none" stroke="black" cx="142" cy="-648" rx="27" ry="18"/>
<text text-anchor="middle" x="142" y="-644.3" font-family="Times New Roman,serif" font-size="14.00">1</text>
</g>
<!-- 3 -->
<g id="node3" class="node">
<title>3</title>
<ellipse fill="none" stroke="black" cx="170" cy="-561" rx="27" ry="18"/>
<text text-anchor="middle" x="170" y="-557.3" font-family="Times New Roman,serif" font-size="14.00">3</text>
</g>
<!-- 1&#45;&gt;3 -->
<g id="edge1" class="edge">
<title>1&#45;&gt;3</title>
<path fill="none" stroke="black" d="M147.53,-630.21C151.44,-618.33 156.77,-602.17 161.25,-588.56"/>
<polygon fill="black" stroke="black" points="164.68,-589.35 164.48,-578.76 158.03,-587.16 164.68,-589.35"/>
<text text-anchor="middle" x="160.5" y="-600.8" font-family="Times New Roman,serif" font-size="14.00">4</text>
</g>
<!-- 4 -->
<g id="node4" class="node">
<title>4</title>
<ellipse fill="none" stroke="black" cx="89" cy="-192" rx="27" ry="18"/>
<text text-anchor="middle" x="89" y="-188.3" font-family="Times New Roman,serif" font-size="14.00">4</text>
</g>
<!-- 1&#45;&gt;4 -->
<g id="edge2" class="edge">
<title>1&#45;&gt;4</title>
<path fill="none" stroke="black" d="M122.05,-635.36C100.44,-621.07 69,-594.68 69,-562 69,-562 69,-562 69,-278 69,-257.91 74.36,-235.85 79.53,-219.24"/>
<polygon fill="black" stroke="black" points="82.88,-220.25 82.67,-209.66 76.23,-218.07 82.88,-220.25"/>
<text text-anchor="middle" x="72.5" y="-405.8" font-family="Times New Roman,serif" font-size="14.00">2</text>
</g>
<!-- 7 -->
<g id="node7" class="node">
<title>7</title>
<ellipse fill="none" stroke="black" cx="27" cy="-507" rx="27" ry="18"/>
<text text-anchor="middle" x="27" y="-503.3" font-family="Times New Roman,serif" font-size="14.00">7</text>
</g>
<!-- 1&#45;&gt;7 -->
<g id="edge3" class="edge">
<title>1&#45;&gt;7</title>
<path fill="none" stroke="black" d="M115.29,-644.11C93.93,-640.35 64.85,-631.73 48,-612 29.93,-590.84 25.87,-558.43 25.58,-535.43"/>
<polygon fill="black" stroke="black" points="29.09,-535.32 25.69,-525.28 22.09,-535.25 29.09,-535.32"/>
<text text-anchor="middle" x="51.5" y="-600.8" font-family="Times New Roman,serif" font-size="14.00">2</text>
</g>
<!-- 8 -->
<g id="node8" class="node">
<title>8</title>
<ellipse fill="none" stroke="black" cx="278" cy="-192" rx="27" ry="18"/>
<text text-anchor="middle" x="278" y="-188.3" font-family="Times New Roman,serif" font-size="14.00">8</text>
</g>
<!-- 1&#45;&gt;8 -->
<g id="edge4" class="edge">
<title>1&#45;&gt;8</title>
<path fill="none" stroke="black" d="M168.75,-645C214.76,-639.94 304,-622.35 304,-562 304,-562 304,-562 304,-278 304,-257.55 297.03,-235.5 290.31,-218.98"/>
<polygon fill="black" stroke="black" points="293.39,-217.28 286.23,-209.48 286.96,-220.05 293.39,-217.28"/>
<text text-anchor="middle" x="307.5" y="-405.8" font-family="Times New Roman,serif" font-size="14.00">2</text>
</g>
<!-- 2 -->
<g id="node2" class="node">
<title>2</title>
<ellipse fill="none" stroke="black" cx="179" cy="-279" rx="27" ry="18"/>
<text text-anchor="middle" x="179" y="-275.3" font-family="Times New Roman,serif" font-size="14.00">2</text>
</g>
<!-- 2&#45;&gt;1 -->
<g id="edge5" class="edge">
<title>2&#45;&gt;1</title>
<path fill="none" stroke="black" d="M173.99,-296.75C160.99,-341.98 127.64,-470.52 134,-579 134.79,-592.49 136.46,-607.41 138.07,-619.83"/>
<polygon fill="black" stroke="black" points="134.63,-620.56 139.44,-630 141.57,-619.62 134.63,-620.56"/>
<text text-anchor="middle" x="146.5" y="-449.3" font-family="Times New Roman,serif" font-size="14.00">5</text>
</g>
<!-- 2&#45;&gt;3 -->
<g id="edge6" class="edge">
<title>2&#45;&gt;3</title>
<path fill="none" stroke="black" d="M177.68,-297.19C175.55,-325.77 171.45,-384.88 170,-435 169.03,-468.45 169.23,-506.95 169.54,-532.28"/>
<polygon fill="black" stroke="black" points="166.04,-532.65 169.68,-542.6 173.04,-532.56 166.04,-532.65"/>
<text text-anchor="middle" x="174.5" y="-405.8" font-family="Times New Roman,serif" font-size="14.00">4</text>
</g>
<!-- 2&#45;&gt;4 -->
<g id="edge7" class="edge">
<title>2&#45;&gt;4</title>
<path fill="none" stroke="black" d="M164.14,-263.96C149.81,-250.43 127.93,-229.77 111.47,-214.22"/>
<polygon fill="black" stroke="black" points="113.56,-211.38 103.88,-207.06 108.75,-216.47 113.56,-211.38"/>
<text text-anchor="middle" x="142.5" y="-231.8" font-family="Times New Roman,serif" font-size="14.00">4</text>
</g>
<!-- 2&#45;&gt;8 -->
<g id="edge8" class="edge">
<title>2&#45;&gt;8</title>
<path fill="none" stroke="black" d="M194.91,-264.34C210.93,-250.59 235.84,-229.2 254.21,-213.43"/>
<polygon fill="black" stroke="black" points="256.83,-215.79 262.13,-206.62 252.27,-210.48 256.83,-215.79"/>
<text text-anchor="middle" x="237.5" y="-231.8" font-family="Times New Roman,serif" font-size="14.00">5</text>
</g>
<!-- 9 -->
<g id="node9" class="node">
<title>9</title>
<ellipse fill="none" stroke="black" cx="206" cy="-453" rx="27" ry="18"/>
<text text-anchor="middle" x="206" y="-449.3" font-family="Times New Roman,serif" font-size="14.00">9</text>
</g>
<!-- 3&#45;&gt;9 -->
<g id="edge9" class="edge">
<title>3&#45;&gt;9</title>
<path fill="none" stroke="black" d="M175.78,-542.97C181.54,-526.03 190.45,-499.79 197.1,-480.2"/>
<polygon fill="black" stroke="black" points="200.45,-481.23 200.35,-470.64 193.82,-478.98 200.45,-481.23"/>
<text text-anchor="middle" x="196.5" y="-503.3" font-family="Times New Roman,serif" font-size="14.00">4</text>
</g>
<!-- 6 -->
<g id="node6" class="node">
<title>6</title>
<ellipse fill="none" stroke="black" cx="141" cy="-105" rx="27" ry="18"/>
<text text-anchor="middle" x="141" y="-101.3" font-family="Times New Roman,serif" font-size="14.00">6</text>
</g>
<!-- 4&#45;&gt;6 -->
<g id="edge10" class="edge">
<title>4&#45;&gt;6</title>
<path fill="none" stroke="black" d="M98.78,-175.01C106.41,-162.55 117.13,-145.01 125.87,-130.74"/>
<polygon fill="black" stroke="black" points="129.03,-132.27 131.26,-121.92 123.06,-128.62 129.03,-132.27"/>
<text text-anchor="middle" x="121.5" y="-144.8" font-family="Times New Roman,serif" font-size="14.00">3</text>
</g>
<!-- 5 -->
<g id="node5" class="node">
<title>5</title>
<ellipse fill="none" stroke="black" cx="141" cy="-18" rx="27" ry="18"/>
<text text-anchor="middle" x="141" y="-14.3" font-family="Times New Roman,serif" font-size="14.00">5</text>
</g>
<!-- 5&#45;&gt;1 -->
<g id="edge11" class="edge">
<title>5&#45;&gt;1</title>
<path fill="none" stroke="black" d="M168.11,-18.57C222.97,-19.26 342,-29.36 342,-104 342,-562 342,-562 342,-562 342,-631.79 237.57,-645.1 179.63,-647.12"/>
<polygon fill="black" stroke="black" points="179.3,-643.63 169.39,-647.37 179.47,-650.62 179.3,-643.63"/>
<text text-anchor="middle" x="345.5" y="-318.8" font-family="Times New Roman,serif" font-size="14.00">5</text>
</g>
<!-- 5&#45;&gt;4 -->
<g id="edge12" class="edge">
<title>5&#45;&gt;4</title>
<path fill="none" stroke="black" d="M128.43,-34.11C118.3,-47.21 104.69,-67.15 98,-87 89.53,-112.12 87.8,-142.49 87.88,-163.91"/>
<polygon fill="black" stroke="black" points="84.38,-163.99 88.04,-173.93 91.38,-163.87 84.38,-163.99"/>
<text text-anchor="middle" x="101.5" y="-101.3" font-family="Times New Roman,serif" font-size="14.00">2</text>
</g>
<!-- 6&#45;&gt;5 -->
<g id="edge13" class="edge">
<title>6&#45;&gt;5</title>
<path fill="none" stroke="black" d="M141,-86.8C141,-75.16 141,-59.55 141,-46.24"/>
<polygon fill="black" stroke="black" points="144.5,-46.18 141,-36.18 137.5,-46.18 144.5,-46.18"/>
<text text-anchor="middle" x="144.5" y="-57.8" font-family="Times New Roman,serif" font-size="14.00">1</text>
</g>
<!-- 7&#45;&gt;4 -->
<g id="edge14" class="edge">
<title>7&#45;&gt;4</title>
<path fill="none" stroke="black" d="M27.58,-488.75C28.17,-469.63 29,-437.86 29,-410.5 29,-410.5 29,-410.5 29,-278 29,-252.23 47.63,-228.79 64.13,-213.08"/>
<polygon fill="black" stroke="black" points="66.88,-215.31 71.97,-206.01 62.2,-210.11 66.88,-215.31"/>
<text text-anchor="middle" x="32.5" y="-362.3" font-family="Times New Roman,serif" font-size="14.00">1</text>
</g>
<!-- 9&#45;&gt;2 -->
<g id="edge15" class="edge">
<title>9&#45;&gt;2</title>
<path fill="none" stroke="black" d="M203.31,-434.88C198.62,-405 188.91,-343.11 183.28,-307.27"/>
<polygon fill="black" stroke="black" points="186.69,-306.39 181.68,-297.05 179.77,-307.47 186.69,-306.39"/>
<text text-anchor="middle" x="198.5" y="-362.3" font-family="Times New Roman,serif" font-size="14.00">3</text>
</g>
<!-- 10 -->
<g id="node10" class="node">
<title>10</title>
<ellipse fill="none" stroke="black" cx="249" cy="-366" rx="27" ry="18"/>
<text text-anchor="middle" x="249" y="-362.3" font-family="Times New Roman,serif" font-size="14.00">10</text>
</g>
<!-- 9&#45;&gt;10 -->
<g id="edge16" class="edge">
<title>9&#45;&gt;10</title>
<path fill="none" stroke="black" d="M214.29,-435.61C220.48,-423.38 229.05,-406.44 236.12,-392.46"/>
<polygon fill="black" stroke="black" points="239.34,-393.84 240.73,-383.34 233.1,-390.68 239.34,-393.84"/>
<text text-anchor="middle" x="233.5" y="-405.8" font-family="Times New Roman,serif" font-size="14.00">4</text>
</g>
<!-- 10&#45;&gt;2 -->
<g id="edge17" class="edge">
<title>10&#45;&gt;2</title>
<path fill="none" stroke="black" d="M237.71,-349.4C230.33,-339.39 220.36,-326.22 211,-315 207.53,-310.84 203.73,-306.5 200,-302.36"/>
<polygon fill="black" stroke="black" points="202.34,-299.74 193.01,-294.72 197.18,-304.46 202.34,-299.74"/>
<text text-anchor="middle" x="225.5" y="-318.8" font-family="Times New Roman,serif" font-size="14.00">5</text>
</g>
</g>
</svg>
