<?xml version="1.0" encoding="UTF-8" standalone="no"?>
<!DOCTYPE svg PUBLIC "-//W3C//DTD SVG 1.1//EN"
 "http://www.w3.org/Graphics/SVG/1.1/DTD/svg11.dtd">
<!-- Generated by graphviz version 3.0.0 (20220226.1711)
 -->
<!-- Pages: 1 -->
<svg width="388pt" height="392pt"
 viewBox="0.00 0.00 388.00 392.00" xmlns="http://www.w3.org/2000/svg" xmlns:xlink="http://www.w3.org/1999/xlink">
<g id="graph0" class="graph" transform="scale(1 1) rotate(0) translate(4 388)">
<polygon fill="white" stroke="transparent" points="-4,4 -4,-388 384,-388 384,4 -4,4"/>
<!-- 1 -->
<g id="node1" class="node">
<title>1</title>
<ellipse fill="none" stroke="black" cx="278" cy="-366" rx="27" ry="18"/>
<text text-anchor="middle" x="278" y="-362.3" font-family="Times New Roman,serif" font-size="14.00">1</text>
</g>
<!-- 2 -->
<g id="node2" class="node">
<title>2</title>
<ellipse fill="none" stroke="black" cx="97" cy="-279" rx="27" ry="18"/>
<text text-anchor="middle" x="97" y="-275.3" font-family="Times New Roman,serif" font-size="14.00">2</text>
</g>
<!-- 1&#45;&gt;2 -->
<g id="edge1" class="edge">
<title>1&#45;&gt;2</title>
<path fill="none" stroke="black" d="M251.26,-363.16C221.77,-360.08 173.91,-351.86 139,-330 128.7,-323.55 119.66,-313.74 112.64,-304.51"/>
<polygon fill="black" stroke="black" points="115.43,-302.4 106.77,-296.31 109.74,-306.48 115.43,-302.4"/>
<text text-anchor="middle" x="142.5" y="-318.8" font-family="Times New Roman,serif" font-size="14.00">4</text>
</g>
<!-- 4 -->
<g id="node4" class="node">
<title>4</title>
<ellipse fill="none" stroke="black" cx="333" cy="-192" rx="27" ry="18"/>
<text text-anchor="middle" x="333" y="-188.3" font-family="Times New Roman,serif" font-size="14.00">4</text>
</g>
<!-- 1&#45;&gt;4 -->
<g id="edge2" class="edge">
<title>1&#45;&gt;4</title>
<path fill="none" stroke="black" d="M300.42,-355.59C322.45,-344.96 354.77,-325.39 369,-297 382.32,-270.43 366.15,-237.74 351.42,-216.19"/>
<polygon fill="black" stroke="black" points="354.18,-214.03 345.5,-207.96 348.5,-218.12 354.18,-214.03"/>
<text text-anchor="middle" x="376.5" y="-275.3" font-family="Times New Roman,serif" font-size="14.00">3</text>
</g>
<!-- 6 -->
<g id="node6" class="node">
<title>6</title>
<ellipse fill="none" stroke="black" cx="333" cy="-279" rx="27" ry="18"/>
<text text-anchor="middle" x="333" y="-275.3" font-family="Times New Roman,serif" font-size="14.00">6</text>
</g>
<!-- 1&#45;&gt;6 -->
<g id="edge3" class="edge">
<title>1&#45;&gt;6</title>
<path fill="none" stroke="black" d="M288.35,-349.01C296.49,-336.43 307.97,-318.68 317.26,-304.33"/>
<polygon fill="black" stroke="black" points="320.21,-306.21 322.7,-295.92 314.33,-302.41 320.21,-306.21"/>
<text text-anchor="middle" x="311.5" y="-318.8" font-family="Times New Roman,serif" font-size="14.00">1</text>
</g>
<!-- 3 -->
<g id="node3" class="node">
<title>3</title>
<ellipse fill="none" stroke="black" cx="152" cy="-192" rx="27" ry="18"/>
<text text-anchor="middle" x="152" y="-188.3" font-family="Times New Roman,serif" font-size="14.00">3</text>
</g>
<!-- 2&#45;&gt;3 -->
<g id="edge4" class="edge">
<title>2&#45;&gt;3</title>
<path fill="none" stroke="black" d="M107.35,-262.01C115.49,-249.43 126.97,-231.68 136.26,-217.33"/>
<polygon fill="black" stroke="black" points="139.21,-219.21 141.7,-208.92 133.33,-215.41 139.21,-219.21"/>
<text text-anchor="middle" x="131.5" y="-231.8" font-family="Times New Roman,serif" font-size="14.00">2</text>
</g>
<!-- 2&#45;&gt;4 -->
<g id="edge5" class="edge">
<title>2&#45;&gt;4</title>
<path fill="none" stroke="black" d="M118.97,-268.41C125.08,-265.87 131.76,-263.22 138,-261 164.23,-251.66 171.6,-251.84 198,-243 233.46,-231.13 273.59,-216.05 300.81,-205.57"/>
<polygon fill="black" stroke="black" points="302.16,-208.81 310.23,-201.94 299.64,-202.28 302.16,-208.81"/>
<text text-anchor="middle" x="243.5" y="-231.8" font-family="Times New Roman,serif" font-size="14.00">5</text>
</g>
<!-- 5 -->
<g id="node5" class="node">
<title>5</title>
<ellipse fill="none" stroke="black" cx="73" cy="-105" rx="27" ry="18"/>
<text text-anchor="middle" x="73" y="-101.3" font-family="Times New Roman,serif" font-size="14.00">5</text>
</g>
<!-- 2&#45;&gt;5 -->
<g id="edge6" class="edge">
<title>2&#45;&gt;5</title>
<path fill="none" stroke="black" d="M88.84,-261.73C82.56,-248.25 74.4,-228.39 71,-210 66.25,-184.29 67.51,-154.4 69.51,-133.28"/>
<polygon fill="black" stroke="black" points="73.01,-133.42 70.59,-123.1 66.05,-132.68 73.01,-133.42"/>
<text text-anchor="middle" x="74.5" y="-188.3" font-family="Times New Roman,serif" font-size="14.00">4</text>
</g>
<!-- 9 -->
<g id="node9" class="node">
<title>9</title>
<ellipse fill="none" stroke="black" cx="27" cy="-18" rx="27" ry="18"/>
<text text-anchor="middle" x="27" y="-14.3" font-family="Times New Roman,serif" font-size="14.00">9</text>
</g>
<!-- 2&#45;&gt;9 -->
<g id="edge7" class="edge">
<title>2&#45;&gt;9</title>
<path fill="none" stroke="black" d="M84.36,-262.68C79.97,-256.8 75.33,-249.85 72,-243 40.06,-177.21 30.78,-90 28.09,-46.34"/>
<polygon fill="black" stroke="black" points="31.58,-46.02 27.54,-36.22 24.59,-46.4 31.58,-46.02"/>
<text text-anchor="middle" x="46.5" y="-144.8" font-family="Times New Roman,serif" font-size="14.00">2</text>
</g>
<!-- 3&#45;&gt;1 -->
<g id="edge8" class="edge">
<title>3&#45;&gt;1</title>
<path fill="none" stroke="black" d="M151.11,-210.02C150.79,-231.98 153.16,-270.51 171,-297 188.91,-323.59 221.08,-341.94 245.48,-352.81"/>
<polygon fill="black" stroke="black" points="244.17,-356.06 254.74,-356.75 246.91,-349.62 244.17,-356.06"/>
<text text-anchor="middle" x="174.5" y="-275.3" font-family="Times New Roman,serif" font-size="14.00">4</text>
</g>
<!-- 3&#45;&gt;5 -->
<g id="edge9" class="edge">
<title>3&#45;&gt;5</title>
<path fill="none" stroke="black" d="M138.24,-176.19C125.89,-162.91 107.6,-143.23 93.53,-128.08"/>
<polygon fill="black" stroke="black" points="95.97,-125.58 86.6,-120.64 90.85,-130.34 95.97,-125.58"/>
<text text-anchor="middle" x="121.5" y="-144.8" font-family="Times New Roman,serif" font-size="14.00">3</text>
</g>
<!-- 7 -->
<g id="node7" class="node">
<title>7</title>
<ellipse fill="none" stroke="black" cx="157" cy="-105" rx="27" ry="18"/>
<text text-anchor="middle" x="157" y="-101.3" font-family="Times New Roman,serif" font-size="14.00">7</text>
</g>
<!-- 3&#45;&gt;7 -->
<g id="edge10" class="edge">
<title>3&#45;&gt;7</title>
<path fill="none" stroke="black" d="M153.01,-173.8C153.7,-162.16 154.61,-146.55 155.4,-133.24"/>
<polygon fill="black" stroke="black" points="158.9,-133.36 155.99,-123.18 151.91,-132.95 158.9,-133.36"/>
<text text-anchor="middle" x="158.5" y="-144.8" font-family="Times New Roman,serif" font-size="14.00">4</text>
</g>
<!-- 8 -->
<g id="node8" class="node">
<title>8</title>
<ellipse fill="none" stroke="black" cx="254" cy="-105" rx="27" ry="18"/>
<text text-anchor="middle" x="254" y="-101.3" font-family="Times New Roman,serif" font-size="14.00">8</text>
</g>
<!-- 3&#45;&gt;8 -->
<g id="edge11" class="edge">
<title>3&#45;&gt;8</title>
<path fill="none" stroke="black" d="M168.39,-177.34C184.97,-163.53 210.79,-142.01 229.74,-126.21"/>
<polygon fill="black" stroke="black" points="232.21,-128.71 237.65,-119.62 227.73,-123.34 232.21,-128.71"/>
<text text-anchor="middle" x="213.5" y="-144.8" font-family="Times New Roman,serif" font-size="14.00">2</text>
</g>
<!-- 6&#45;&gt;4 -->
<g id="edge12" class="edge">
<title>6&#45;&gt;4</title>
<path fill="none" stroke="black" d="M333,-260.8C333,-249.16 333,-233.55 333,-220.24"/>
<polygon fill="black" stroke="black" points="336.5,-220.18 333,-210.18 329.5,-220.18 336.5,-220.18"/>
<text text-anchor="middle" x="336.5" y="-231.8" font-family="Times New Roman,serif" font-size="14.00">1</text>
</g>
<!-- 7&#45;&gt;2 -->
<g id="edge13" class="edge">
<title>7&#45;&gt;2</title>
<path fill="none" stroke="black" d="M137.01,-117.56C128.57,-123.49 119.44,-131.47 114,-141 94.6,-174.95 93.03,-221.28 94.43,-250.41"/>
<polygon fill="black" stroke="black" points="90.96,-250.92 95.09,-260.67 97.94,-250.47 90.96,-250.92"/>
<text text-anchor="middle" x="104.5" y="-188.3" font-family="Times New Roman,serif" font-size="14.00">5</text>
</g>
<!-- 7&#45;&gt;9 -->
<g id="edge14" class="edge">
<title>7&#45;&gt;9</title>
<path fill="none" stroke="black" d="M138.37,-91.82C116.27,-77.37 79.23,-53.15 53.98,-36.64"/>
<polygon fill="black" stroke="black" points="55.88,-33.7 45.59,-31.16 52.05,-39.56 55.88,-33.7"/>
<text text-anchor="middle" x="103.5" y="-57.8" font-family="Times New Roman,serif" font-size="14.00">2</text>
</g>
<!-- 8&#45;&gt;1 -->
<g id="edge15" class="edge">
<title>8&#45;&gt;1</title>
<path fill="none" stroke="black" d="M255.58,-123.06C259.66,-167.03 270.54,-284.54 275.49,-337.93"/>
<polygon fill="black" stroke="black" points="272.02,-338.37 276.43,-348.01 278.99,-337.73 272.02,-338.37"/>
<text text-anchor="middle" x="269.5" y="-231.8" font-family="Times New Roman,serif" font-size="14.00">2</text>
</g>
<!-- 10 -->
<g id="node10" class="node">
<title>10</title>
<ellipse fill="none" stroke="black" cx="214" cy="-279" rx="27" ry="18"/>
<text text-anchor="middle" x="214" y="-275.3" font-family="Times New Roman,serif" font-size="14.00">10</text>
</g>
<!-- 10&#45;&gt;3 -->
<g id="edge16" class="edge">
<title>10&#45;&gt;3</title>
<path fill="none" stroke="black" d="M202.63,-262.41C193.28,-249.59 179.88,-231.22 169.21,-216.6"/>
<polygon fill="black" stroke="black" points="172.02,-214.51 163.3,-208.49 166.37,-218.63 172.02,-214.51"/>
<text text-anchor="middle" x="190.5" y="-231.8" font-family="Times New Roman,serif" font-size="14.00">4</text>
</g>
<!-- 10&#45;&gt;7 -->
<g id="edge17" class="edge">
<title>10&#45;&gt;7</title>
<path fill="none" stroke="black" d="M216.46,-260.76C219.5,-233.51 221.95,-179.65 201,-141 197.29,-134.16 191.62,-128.18 185.58,-123.19"/>
<polygon fill="black" stroke="black" points="187.36,-120.16 177.24,-117.02 183.2,-125.79 187.36,-120.16"/>
<text text-anchor="middle" x="221.5" y="-188.3" font-family="Times New Roman,serif" font-size="14.00">1</text>
</g>
</g>
</svg>
