<?xml version="1.0" encoding="UTF-8" standalone="no"?>
<!DOCTYPE svg PUBLIC "-//W3C//DTD SVG 1.1//EN"
 "http://www.w3.org/Graphics/SVG/1.1/DTD/svg11.dtd">
<!-- Generated by graphviz version 3.0.0 (20220226.1711)
 -->
<!-- Pages: 1 -->
<svg width="449pt" height="500pt"
 viewBox="0.00 0.00 448.82 500.00" xmlns="http://www.w3.org/2000/svg" xmlns:xlink="http://www.w3.org/1999/xlink">
<g id="graph0" class="graph" transform="scale(1 1) rotate(0) translate(4 496)">
<polygon fill="white" stroke="transparent" points="-4,4 -4,-496 444.82,-496 444.82,4 -4,4"/>
<!-- 1 -->
<g id="node1" class="node">
<title>1</title>
<ellipse fill="none" stroke="black" cx="176.82" cy="-387" rx="27" ry="18"/>
<text text-anchor="middle" x="176.82" y="-383.3" font-family="Times New Roman,serif" font-size="14.00">1</text>
</g>
<!-- 2 -->
<g id="node2" class="node">
<title>2</title>
<ellipse fill="none" stroke="black" cx="155.82" cy="-279" rx="27" ry="18"/>
<text text-anchor="middle" x="155.82" y="-275.3" font-family="Times New Roman,serif" font-size="14.00">2</text>
</g>
<!-- 1&#45;&gt;2 -->
<g id="edge1" class="edge">
<title>1&#45;&gt;2</title>
<path fill="none" stroke="black" d="M173.39,-368.91C172.25,-363.22 170.98,-356.83 169.82,-351 166.92,-336.41 163.71,-320.14 161.09,-306.85"/>
<polygon fill="black" stroke="black" points="164.51,-306.07 159.14,-296.93 157.64,-307.42 164.51,-306.07"/>
<text text-anchor="middle" x="173.32" y="-329.3" font-family="Times New Roman,serif" font-size="14.00">4</text>
</g>
<!-- 3 -->
<g id="node3" class="node">
<title>3</title>
<ellipse fill="none" stroke="black" cx="280.82" cy="-192" rx="27" ry="18"/>
<text text-anchor="middle" x="280.82" y="-188.3" font-family="Times New Roman,serif" font-size="14.00">3</text>
</g>
<!-- 1&#45;&gt;3 -->
<g id="edge2" class="edge">
<title>1&#45;&gt;3</title>
<path fill="none" stroke="black" d="M180.69,-368.99C188.23,-338.52 207.06,-273.56 239.82,-228 244,-222.18 249.35,-216.71 254.8,-211.9"/>
<polygon fill="black" stroke="black" points="257.23,-214.43 262.72,-205.36 252.78,-209.03 257.23,-214.43"/>
<text text-anchor="middle" x="223.32" y="-275.3" font-family="Times New Roman,serif" font-size="14.00">2</text>
</g>
<!-- 5 -->
<g id="node5" class="node">
<title>5</title>
<ellipse fill="none" stroke="black" cx="308.82" cy="-279" rx="27" ry="18"/>
<text text-anchor="middle" x="308.82" y="-275.3" font-family="Times New Roman,serif" font-size="14.00">5</text>
</g>
<!-- 1&#45;&gt;5 -->
<g id="edge3" class="edge">
<title>1&#45;&gt;5</title>
<path fill="none" stroke="black" d="M188.06,-370.35C192.38,-364.32 197.35,-357.35 201.82,-351 213.03,-335.07 211.71,-327.3 226.82,-315 240.6,-303.77 258.52,-295.57 274.09,-289.95"/>
<polygon fill="black" stroke="black" points="275.57,-293.14 283.91,-286.62 273.32,-286.51 275.57,-293.14"/>
<text text-anchor="middle" x="230.32" y="-329.3" font-family="Times New Roman,serif" font-size="14.00">1</text>
</g>
<!-- 2&#45;&gt;3 -->
<g id="edge4" class="edge">
<title>2&#45;&gt;3</title>
<path fill="none" stroke="black" d="M166.01,-262.31C173.68,-251.49 185.05,-237.42 197.82,-228 212.37,-217.26 230.72,-209.08 246.46,-203.34"/>
<polygon fill="black" stroke="black" points="248.05,-206.49 256.36,-199.92 245.77,-199.88 248.05,-206.49"/>
<text text-anchor="middle" x="201.32" y="-231.8" font-family="Times New Roman,serif" font-size="14.00">2</text>
</g>
<!-- 4 -->
<g id="node4" class="node">
<title>4</title>
<ellipse fill="none" stroke="black" cx="37.82" cy="-192" rx="27" ry="18"/>
<text text-anchor="middle" x="37.82" y="-188.3" font-family="Times New Roman,serif" font-size="14.00">4</text>
</g>
<!-- 2&#45;&gt;4 -->
<g id="edge5" class="edge">
<title>2&#45;&gt;4</title>
<path fill="none" stroke="black" d="M138.15,-265.27C118.43,-251.07 86.31,-227.93 63.74,-211.67"/>
<polygon fill="black" stroke="black" points="65.76,-208.82 55.6,-205.81 61.67,-214.5 65.76,-208.82"/>
<text text-anchor="middle" x="107.32" y="-231.8" font-family="Times New Roman,serif" font-size="14.00">1</text>
</g>
<!-- 4&#45;&gt;1 -->
<g id="edge6" class="edge">
<title>4&#45;&gt;1</title>
<path fill="none" stroke="black" d="M38.42,-210.12C40.46,-241.96 49.22,-310.67 86.82,-351 100.9,-366.11 122.27,-374.78 140.65,-379.71"/>
<polygon fill="black" stroke="black" points="139.95,-383.14 150.49,-382.08 141.59,-376.34 139.95,-383.14"/>
<text text-anchor="middle" x="58.32" y="-275.3" font-family="Times New Roman,serif" font-size="14.00">2</text>
</g>
<!-- 8 -->
<g id="node8" class="node">
<title>8</title>
<ellipse fill="none" stroke="black" cx="45.82" cy="-18" rx="27" ry="18"/>
<text text-anchor="middle" x="45.82" y="-14.3" font-family="Times New Roman,serif" font-size="14.00">8</text>
</g>
<!-- 4&#45;&gt;8 -->
<g id="edge7" class="edge">
<title>4&#45;&gt;8</title>
<path fill="none" stroke="black" d="M26.51,-175.62C13.08,-155.44 -6.41,-118.84 2.82,-87 7.55,-70.65 17.53,-54.45 26.68,-41.97"/>
<polygon fill="black" stroke="black" points="29.5,-44.04 32.8,-33.97 23.95,-39.78 29.5,-44.04"/>
<text text-anchor="middle" x="6.32" y="-101.3" font-family="Times New Roman,serif" font-size="14.00">5</text>
</g>
<!-- 9 -->
<g id="node9" class="node">
<title>9</title>
<ellipse fill="none" stroke="black" cx="45.82" cy="-105" rx="27" ry="18"/>
<text text-anchor="middle" x="45.82" y="-101.3" font-family="Times New Roman,serif" font-size="14.00">9</text>
</g>
<!-- 4&#45;&gt;9 -->
<g id="edge8" class="edge">
<title>4&#45;&gt;9</title>
<path fill="none" stroke="black" d="M39.44,-173.8C40.53,-162.16 42,-146.55 43.25,-133.24"/>
<polygon fill="black" stroke="black" points="46.75,-133.46 44.2,-123.18 39.78,-132.8 46.75,-133.46"/>
<text text-anchor="middle" x="46.32" y="-144.8" font-family="Times New Roman,serif" font-size="14.00">4</text>
</g>
<!-- 5&#45;&gt;3 -->
<g id="edge9" class="edge">
<title>5&#45;&gt;3</title>
<path fill="none" stroke="black" d="M303.29,-261.21C299.37,-249.33 294.05,-233.17 289.57,-219.56"/>
<polygon fill="black" stroke="black" points="292.79,-218.16 286.34,-209.76 286.14,-220.35 292.79,-218.16"/>
<text text-anchor="middle" x="299.32" y="-231.8" font-family="Times New Roman,serif" font-size="14.00">4</text>
</g>
<!-- 6 -->
<g id="node6" class="node">
<title>6</title>
<ellipse fill="none" stroke="black" cx="253.82" cy="-474" rx="27" ry="18"/>
<text text-anchor="middle" x="253.82" y="-470.3" font-family="Times New Roman,serif" font-size="14.00">6</text>
</g>
<!-- 6&#45;&gt;1 -->
<g id="edge10" class="edge">
<title>6&#45;&gt;1</title>
<path fill="none" stroke="black" d="M240.4,-458.19C228.44,-444.99 210.76,-425.47 197.07,-410.36"/>
<polygon fill="black" stroke="black" points="199.64,-407.98 190.33,-402.92 194.45,-412.68 199.64,-407.98"/>
<text text-anchor="middle" x="223.32" y="-426.8" font-family="Times New Roman,serif" font-size="14.00">5</text>
</g>
<!-- 6&#45;&gt;3 -->
<g id="edge11" class="edge">
<title>6&#45;&gt;3</title>
<path fill="none" stroke="black" d="M255.18,-455.95C258.11,-419.92 265.31,-333.41 272.82,-261 274.21,-247.56 275.94,-232.64 277.44,-220.21"/>
<polygon fill="black" stroke="black" points="280.95,-220.38 278.68,-210.03 274,-219.54 280.95,-220.38"/>
<text text-anchor="middle" x="270.32" y="-329.3" font-family="Times New Roman,serif" font-size="14.00">2</text>
</g>
<!-- 10 -->
<g id="node10" class="node">
<title>10</title>
<ellipse fill="none" stroke="black" cx="413.82" cy="-333" rx="27" ry="18"/>
<text text-anchor="middle" x="413.82" y="-329.3" font-family="Times New Roman,serif" font-size="14.00">10</text>
</g>
<!-- 6&#45;&gt;10 -->
<g id="edge12" class="edge">
<title>6&#45;&gt;10</title>
<path fill="none" stroke="black" d="M276.46,-463.73C301.54,-452.62 342.08,-432.06 369.82,-405 383.18,-391.96 394.24,-374.07 401.92,-359.51"/>
<polygon fill="black" stroke="black" points="405.09,-361.01 406.48,-350.51 398.84,-357.85 405.09,-361.01"/>
<text text-anchor="middle" x="350.32" y="-426.8" font-family="Times New Roman,serif" font-size="14.00">3</text>
</g>
<!-- 7 -->
<g id="node7" class="node">
<title>7</title>
<ellipse fill="none" stroke="black" cx="333.82" cy="-387" rx="27" ry="18"/>
<text text-anchor="middle" x="333.82" y="-383.3" font-family="Times New Roman,serif" font-size="14.00">7</text>
</g>
<!-- 7&#45;&gt;3 -->
<g id="edge14" class="edge">
<title>7&#45;&gt;3</title>
<path fill="none" stroke="black" d="M339.97,-369.13C347.96,-344.44 359.27,-297.45 344.82,-261 337.12,-241.6 320.98,-224.52 306.84,-212.32"/>
<polygon fill="black" stroke="black" points="308.77,-209.38 298.82,-205.73 304.32,-214.78 308.77,-209.38"/>
<text text-anchor="middle" x="354.32" y="-275.3" font-family="Times New Roman,serif" font-size="14.00">5</text>
</g>
<!-- 7&#45;&gt;5 -->
<g id="edge13" class="edge">
<title>7&#45;&gt;5</title>
<path fill="none" stroke="black" d="M329.8,-368.97C325.85,-352.2 319.75,-326.34 315.14,-306.81"/>
<polygon fill="black" stroke="black" points="318.53,-305.92 312.82,-296.99 311.71,-307.52 318.53,-305.92"/>
<text text-anchor="middle" x="328.32" y="-329.3" font-family="Times New Roman,serif" font-size="14.00">3</text>
</g>
<!-- 8&#45;&gt;1 -->
<g id="edge15" class="edge">
<title>8&#45;&gt;1</title>
<path fill="none" stroke="black" d="M61.73,-32.59C77.97,-48.07 100.82,-75 100.82,-104 100.82,-280 100.82,-280 100.82,-280 100.82,-315.49 129.31,-347.26 151.4,-366.56"/>
<polygon fill="black" stroke="black" points="149.28,-369.35 159.19,-373.09 153.78,-363.98 149.28,-369.35"/>
<text text-anchor="middle" x="104.32" y="-188.3" font-family="Times New Roman,serif" font-size="14.00">5</text>
</g>
<!-- 9&#45;&gt;8 -->
<g id="edge16" class="edge">
<title>9&#45;&gt;8</title>
<path fill="none" stroke="black" d="M45.82,-86.8C45.82,-75.16 45.82,-59.55 45.82,-46.24"/>
<polygon fill="black" stroke="black" points="49.32,-46.18 45.82,-36.18 42.32,-46.18 49.32,-46.18"/>
<text text-anchor="middle" x="49.32" y="-57.8" font-family="Times New Roman,serif" font-size="14.00">3</text>
</g>
<!-- 10&#45;&gt;3 -->
<g id="edge17" class="edge">
<title>10&#45;&gt;3</title>
<path fill="none" stroke="black" d="M413.94,-314.89C413.16,-292.12 408.39,-251.94 385.82,-228 368.21,-209.33 340.4,-200.61 317.82,-196.55"/>
<polygon fill="black" stroke="black" points="318.29,-193.08 307.87,-194.99 317.21,-199.99 318.29,-193.08"/>
<text text-anchor="middle" x="415.32" y="-275.3" font-family="Times New Roman,serif" font-size="14.00">1</text>
</g>
</g>
</svg>
