<?xml version="1.0" encoding="UTF-8" standalone="no"?>
<!DOCTYPE svg PUBLIC "-//W3C//DTD SVG 1.1//EN"
 "http://www.w3.org/Graphics/SVG/1.1/DTD/svg11.dtd">
<!-- Generated by graphviz version 3.0.0 (20220226.1711)
 -->
<!-- Pages: 1 -->
<svg width="397pt" height="392pt"
 viewBox="0.00 0.00 397.00 392.00" xmlns="http://www.w3.org/2000/svg" xmlns:xlink="http://www.w3.org/1999/xlink">
<g id="graph0" class="graph" transform="scale(1 1) rotate(0) translate(4 388)">
<polygon fill="white" stroke="transparent" points="-4,4 -4,-388 393,-388 393,4 -4,4"/>
<!-- 1 -->
<g id="node1" class="node">
<title>1</title>
<ellipse fill="none" stroke="black" cx="262" cy="-366" rx="27" ry="18"/>
<text text-anchor="middle" x="262" y="-362.3" font-family="Times New Roman,serif" font-size="14.00">1</text>
</g>
<!-- 2 -->
<g id="node2" class="node">
<title>2</title>
<ellipse fill="none" stroke="black" cx="186" cy="-279" rx="27" ry="18"/>
<text text-anchor="middle" x="186" y="-275.3" font-family="Times New Roman,serif" font-size="14.00">2</text>
</g>
<!-- 1&#45;&gt;2 -->
<g id="edge1" class="edge">
<title>1&#45;&gt;2</title>
<path fill="none" stroke="black" d="M248.76,-350.19C237.06,-337.11 219.82,-317.83 206.37,-302.78"/>
<polygon fill="black" stroke="black" points="208.62,-300.04 199.34,-294.92 203.4,-304.71 208.62,-300.04"/>
<text text-anchor="middle" x="232.5" y="-318.8" font-family="Times New Roman,serif" font-size="14.00">5</text>
</g>
<!-- 3 -->
<g id="node3" class="node">
<title>3</title>
<ellipse fill="none" stroke="black" cx="101" cy="-192" rx="27" ry="18"/>
<text text-anchor="middle" x="101" y="-188.3" font-family="Times New Roman,serif" font-size="14.00">3</text>
</g>
<!-- 2&#45;&gt;3 -->
<g id="edge2" class="edge">
<title>2&#45;&gt;3</title>
<path fill="none" stroke="black" d="M171.58,-263.58C158.15,-250.15 137.94,-229.94 122.59,-214.59"/>
<polygon fill="black" stroke="black" points="125.04,-212.09 115.49,-207.49 120.09,-217.04 125.04,-212.09"/>
<text text-anchor="middle" x="152.5" y="-231.8" font-family="Times New Roman,serif" font-size="14.00">4</text>
</g>
<!-- 5 -->
<g id="node5" class="node">
<title>5</title>
<ellipse fill="none" stroke="black" cx="308" cy="-192" rx="27" ry="18"/>
<text text-anchor="middle" x="308" y="-188.3" font-family="Times New Roman,serif" font-size="14.00">5</text>
</g>
<!-- 2&#45;&gt;5 -->
<g id="edge3" class="edge">
<title>2&#45;&gt;5</title>
<path fill="none" stroke="black" d="M198.54,-262.61C207.81,-251.93 221.16,-237.9 235,-228 247.42,-219.11 262.44,-211.47 275.62,-205.61"/>
<polygon fill="black" stroke="black" points="277.02,-208.82 284.83,-201.66 274.26,-202.38 277.02,-208.82"/>
<text text-anchor="middle" x="238.5" y="-231.8" font-family="Times New Roman,serif" font-size="14.00">3</text>
</g>
<!-- 6 -->
<g id="node6" class="node">
<title>6</title>
<ellipse fill="none" stroke="black" cx="289" cy="-105" rx="27" ry="18"/>
<text text-anchor="middle" x="289" y="-101.3" font-family="Times New Roman,serif" font-size="14.00">6</text>
</g>
<!-- 2&#45;&gt;6 -->
<g id="edge4" class="edge">
<title>2&#45;&gt;6</title>
<path fill="none" stroke="black" d="M194.91,-261.69C200.33,-251.87 207.45,-239.15 214,-228 233.98,-193.97 258.01,-155.24 273.4,-130.72"/>
<polygon fill="black" stroke="black" points="276.48,-132.38 278.84,-122.06 270.56,-128.66 276.48,-132.38"/>
<text text-anchor="middle" x="248.5" y="-188.3" font-family="Times New Roman,serif" font-size="14.00">2</text>
</g>
<!-- 9 -->
<g id="node9" class="node">
<title>9</title>
<ellipse fill="none" stroke="black" cx="142" cy="-105" rx="27" ry="18"/>
<text text-anchor="middle" x="142" y="-101.3" font-family="Times New Roman,serif" font-size="14.00">9</text>
</g>
<!-- 2&#45;&gt;9 -->
<g id="edge5" class="edge">
<title>2&#45;&gt;9</title>
<path fill="none" stroke="black" d="M184.61,-260.68C182.09,-234.24 175.63,-182.5 161,-141 159.81,-137.64 158.34,-134.21 156.73,-130.88"/>
<polygon fill="black" stroke="black" points="159.76,-129.11 152.01,-121.89 153.56,-132.37 159.76,-129.11"/>
<text text-anchor="middle" x="181.5" y="-188.3" font-family="Times New Roman,serif" font-size="14.00">5</text>
</g>
<!-- 3&#45;&gt;1 -->
<g id="edge6" class="edge">
<title>3&#45;&gt;1</title>
<path fill="none" stroke="black" d="M104.22,-209.94C109.19,-232.16 120.59,-271.33 143,-297 166.17,-323.54 202.36,-342.13 228.74,-353.09"/>
<polygon fill="black" stroke="black" points="227.74,-356.46 238.33,-356.91 230.34,-349.95 227.74,-356.46"/>
<text text-anchor="middle" x="146.5" y="-275.3" font-family="Times New Roman,serif" font-size="14.00">2</text>
</g>
<!-- 4 -->
<g id="node4" class="node">
<title>4</title>
<ellipse fill="none" stroke="black" cx="27" cy="-105" rx="27" ry="18"/>
<text text-anchor="middle" x="27" y="-101.3" font-family="Times New Roman,serif" font-size="14.00">4</text>
</g>
<!-- 3&#45;&gt;4 -->
<g id="edge7" class="edge">
<title>3&#45;&gt;4</title>
<path fill="none" stroke="black" d="M87.77,-175.8C76.41,-162.75 59.85,-143.74 46.89,-128.85"/>
<polygon fill="black" stroke="black" points="49.32,-126.31 40.12,-121.06 44.04,-130.91 49.32,-126.31"/>
<text text-anchor="middle" x="72.5" y="-144.8" font-family="Times New Roman,serif" font-size="14.00">5</text>
</g>
<!-- 7 -->
<g id="node7" class="node">
<title>7</title>
<ellipse fill="none" stroke="black" cx="214" cy="-105" rx="27" ry="18"/>
<text text-anchor="middle" x="214" y="-101.3" font-family="Times New Roman,serif" font-size="14.00">7</text>
</g>
<!-- 3&#45;&gt;7 -->
<g id="edge8" class="edge">
<title>3&#45;&gt;7</title>
<path fill="none" stroke="black" d="M118.16,-178.09C136.91,-163.99 167.14,-141.25 188.63,-125.09"/>
<polygon fill="black" stroke="black" points="190.79,-127.84 196.68,-119.03 186.58,-122.25 190.79,-127.84"/>
<text text-anchor="middle" x="168.5" y="-144.8" font-family="Times New Roman,serif" font-size="14.00">1</text>
</g>
<!-- 3&#45;&gt;9 -->
<g id="edge9" class="edge">
<title>3&#45;&gt;9</title>
<path fill="none" stroke="black" d="M108.91,-174.61C114.8,-162.38 122.97,-145.44 129.72,-131.46"/>
<polygon fill="black" stroke="black" points="132.93,-132.87 134.12,-122.34 126.62,-129.82 132.93,-132.87"/>
<text text-anchor="middle" x="127.5" y="-144.8" font-family="Times New Roman,serif" font-size="14.00">2</text>
</g>
<!-- 4&#45;&gt;2 -->
<g id="edge10" class="edge">
<title>4&#45;&gt;2</title>
<path fill="none" stroke="black" d="M28.11,-123.37C30.37,-145.71 37.23,-184.63 58,-210 82.24,-239.61 122.85,-258.04 151.83,-268.12"/>
<polygon fill="black" stroke="black" points="150.95,-271.51 161.54,-271.34 153.15,-264.87 150.95,-271.51"/>
<text text-anchor="middle" x="61.5" y="-188.3" font-family="Times New Roman,serif" font-size="14.00">5</text>
</g>
<!-- 5&#45;&gt;1 -->
<g id="edge11" class="edge">
<title>5&#45;&gt;1</title>
<path fill="none" stroke="black" d="M304.87,-210.1C299.89,-236.24 289.35,-287.6 276,-330 275.07,-332.96 274,-336.03 272.88,-339.06"/>
<polygon fill="black" stroke="black" points="269.59,-337.86 269.22,-348.45 276.11,-340.41 269.59,-337.86"/>
<text text-anchor="middle" x="297.5" y="-275.3" font-family="Times New Roman,serif" font-size="14.00">5</text>
</g>
<!-- 5&#45;&gt;6 -->
<g id="edge12" class="edge">
<title>5&#45;&gt;6</title>
<path fill="none" stroke="black" d="M304.16,-173.8C301.54,-162.09 298.02,-146.34 295.03,-132.97"/>
<polygon fill="black" stroke="black" points="298.37,-131.88 292.77,-122.89 291.54,-133.41 298.37,-131.88"/>
<text text-anchor="middle" x="302.5" y="-144.8" font-family="Times New Roman,serif" font-size="14.00">5</text>
</g>
<!-- 8 -->
<g id="node8" class="node">
<title>8</title>
<ellipse fill="none" stroke="black" cx="362" cy="-105" rx="27" ry="18"/>
<text text-anchor="middle" x="362" y="-101.3" font-family="Times New Roman,serif" font-size="14.00">8</text>
</g>
<!-- 5&#45;&gt;8 -->
<g id="edge13" class="edge">
<title>5&#45;&gt;8</title>
<path fill="none" stroke="black" d="M318.16,-175.01C326.08,-162.55 337.22,-145.01 346.28,-130.74"/>
<polygon fill="black" stroke="black" points="349.48,-132.23 351.89,-121.92 343.57,-128.48 349.48,-132.23"/>
<text text-anchor="middle" x="341.5" y="-144.8" font-family="Times New Roman,serif" font-size="14.00">5</text>
</g>
<!-- 7&#45;&gt;1 -->
<g id="edge14" class="edge">
<title>7&#45;&gt;1</title>
<path fill="none" stroke="black" d="M221.27,-122.43C226.97,-136 234.65,-155.9 239,-174 252.79,-231.34 258.5,-300.44 260.72,-337.81"/>
<polygon fill="black" stroke="black" points="257.23,-338.11 261.27,-347.9 264.22,-337.72 257.23,-338.11"/>
<text text-anchor="middle" x="254.5" y="-231.8" font-family="Times New Roman,serif" font-size="14.00">5</text>
</g>
<!-- 10 -->
<g id="node10" class="node">
<title>10</title>
<ellipse fill="none" stroke="black" cx="106" cy="-18" rx="27" ry="18"/>
<text text-anchor="middle" x="106" y="-14.3" font-family="Times New Roman,serif" font-size="14.00">10</text>
</g>
<!-- 7&#45;&gt;10 -->
<g id="edge15" class="edge">
<title>7&#45;&gt;10</title>
<path fill="none" stroke="black" d="M197.12,-90.72C179.29,-76.68 150.99,-54.41 130.66,-38.41"/>
<polygon fill="black" stroke="black" points="132.78,-35.62 122.76,-32.19 128.45,-41.12 132.78,-35.62"/>
<text text-anchor="middle" x="170.5" y="-57.8" font-family="Times New Roman,serif" font-size="14.00">5</text>
</g>
<!-- 8&#45;&gt;1 -->
<g id="edge16" class="edge">
<title>8&#45;&gt;1</title>
<path fill="none" stroke="black" d="M360.29,-123.22C357.93,-144.08 352.91,-180.15 344,-210 327.37,-265.7 322.81,-280.71 292,-330 289.33,-334.27 286.16,-338.56 282.9,-342.59"/>
<polygon fill="black" stroke="black" points="280.03,-340.56 276.2,-350.44 285.35,-345.11 280.03,-340.56"/>
<text text-anchor="middle" x="341.5" y="-231.8" font-family="Times New Roman,serif" font-size="14.00">3</text>
</g>
<!-- 10&#45;&gt;3 -->
<g id="edge17" class="edge">
<title>10&#45;&gt;3</title>
<path fill="none" stroke="black" d="M103.76,-36.01C102.07,-49.74 99.89,-69.58 99,-87 97.67,-112.96 98.47,-142.6 99.42,-163.57"/>
<polygon fill="black" stroke="black" points="95.93,-163.88 99.92,-173.69 102.92,-163.53 95.93,-163.88"/>
<text text-anchor="middle" x="102.5" y="-101.3" font-family="Times New Roman,serif" font-size="14.00">2</text>
</g>
</g>
</svg>
