<?xml version="1.0" encoding="UTF-8" standalone="no"?>
<!DOCTYPE svg PUBLIC "-//W3C//DTD SVG 1.1//EN"
 "http://www.w3.org/Graphics/SVG/1.1/DTD/svg11.dtd">
<!-- Generated by graphviz version 3.0.0 (20220226.1711)
 -->
<!-- Pages: 1 -->
<svg width="251pt" height="653pt"
 viewBox="0.00 0.00 251.00 653.00" xmlns="http://www.w3.org/2000/svg" xmlns:xlink="http://www.w3.org/1999/xlink">
<g id="graph0" class="graph" transform="scale(1 1) rotate(0) translate(4 649)">
<polygon fill="white" stroke="transparent" points="-4,4 -4,-649 247,-649 247,4 -4,4"/>
<!-- 1 -->
<g id="node1" class="node">
<title>1</title>
<ellipse fill="none" stroke="black" cx="97" cy="-279" rx="27" ry="18"/>
<text text-anchor="middle" x="97" y="-275.3" font-family="Times New Roman,serif" font-size="14.00">1</text>
</g>
<!-- 4 -->
<g id="node4" class="node">
<title>4</title>
<ellipse fill="none" stroke="black" cx="181" cy="-192" rx="27" ry="18"/>
<text text-anchor="middle" x="181" y="-188.3" font-family="Times New Roman,serif" font-size="14.00">4</text>
</g>
<!-- 1&#45;&gt;4 -->
<g id="edge1" class="edge">
<title>1&#45;&gt;4</title>
<path fill="none" stroke="black" d="M111.25,-263.58C124.4,-250.27 144.13,-230.31 159.25,-215.01"/>
<polygon fill="black" stroke="black" points="162.14,-217.06 166.68,-207.49 157.16,-212.14 162.14,-217.06"/>
<text text-anchor="middle" x="147.5" y="-231.8" font-family="Times New Roman,serif" font-size="14.00">3</text>
</g>
<!-- 8 -->
<g id="node8" class="node">
<title>8</title>
<ellipse fill="none" stroke="black" cx="109" cy="-192" rx="27" ry="18"/>
<text text-anchor="middle" x="109" y="-188.3" font-family="Times New Roman,serif" font-size="14.00">8</text>
</g>
<!-- 1&#45;&gt;8 -->
<g id="edge2" class="edge">
<title>1&#45;&gt;8</title>
<path fill="none" stroke="black" d="M99.43,-260.8C101.07,-249.16 103.28,-233.55 105.15,-220.24"/>
<polygon fill="black" stroke="black" points="108.64,-220.57 106.58,-210.18 101.71,-219.59 108.64,-220.57"/>
<text text-anchor="middle" x="106.5" y="-231.8" font-family="Times New Roman,serif" font-size="14.00">3</text>
</g>
<!-- 2 -->
<g id="node2" class="node">
<title>2</title>
<ellipse fill="none" stroke="black" cx="85" cy="-366" rx="27" ry="18"/>
<text text-anchor="middle" x="85" y="-362.3" font-family="Times New Roman,serif" font-size="14.00">2</text>
</g>
<!-- 2&#45;&gt;1 -->
<g id="edge3" class="edge">
<title>2&#45;&gt;1</title>
<path fill="none" stroke="black" d="M87.43,-347.8C89.07,-336.16 91.28,-320.55 93.15,-307.24"/>
<polygon fill="black" stroke="black" points="96.64,-307.57 94.58,-297.18 89.71,-306.59 96.64,-307.57"/>
<text text-anchor="middle" x="94.5" y="-318.8" font-family="Times New Roman,serif" font-size="14.00">3</text>
</g>
<!-- 3 -->
<g id="node3" class="node">
<title>3</title>
<ellipse fill="none" stroke="black" cx="183" cy="-453" rx="27" ry="18"/>
<text text-anchor="middle" x="183" y="-449.3" font-family="Times New Roman,serif" font-size="14.00">3</text>
</g>
<!-- 3&#45;&gt;1 -->
<g id="edge5" class="edge">
<title>3&#45;&gt;1</title>
<path fill="none" stroke="black" d="M174.91,-435.82C159.93,-405.85 127.76,-341.52 109.8,-305.59"/>
<polygon fill="black" stroke="black" points="112.73,-303.64 105.13,-296.26 106.47,-306.77 112.73,-303.64"/>
<text text-anchor="middle" x="151.5" y="-362.3" font-family="Times New Roman,serif" font-size="14.00">5</text>
</g>
<!-- 3&#45;&gt;2 -->
<g id="edge4" class="edge">
<title>3&#45;&gt;2</title>
<path fill="none" stroke="black" d="M162.51,-441.27C151.42,-434.96 137.82,-426.4 127,-417 118.05,-409.22 109.4,-399.46 102.31,-390.62"/>
<polygon fill="black" stroke="black" points="104.92,-388.28 96.02,-382.54 99.39,-392.58 104.92,-388.28"/>
<text text-anchor="middle" x="130.5" y="-405.8" font-family="Times New Roman,serif" font-size="14.00">4</text>
</g>
<!-- 3&#45;&gt;4 -->
<g id="edge6" class="edge">
<title>3&#45;&gt;4</title>
<path fill="none" stroke="black" d="M182.87,-434.6C182.52,-390.46 181.62,-273.83 181.21,-220.42"/>
<polygon fill="black" stroke="black" points="184.71,-220.29 181.13,-210.32 177.71,-220.35 184.71,-220.29"/>
<text text-anchor="middle" x="185.5" y="-318.8" font-family="Times New Roman,serif" font-size="14.00">4</text>
</g>
<!-- 7 -->
<g id="node7" class="node">
<title>7</title>
<ellipse fill="none" stroke="black" cx="85" cy="-105" rx="27" ry="18"/>
<text text-anchor="middle" x="85" y="-101.3" font-family="Times New Roman,serif" font-size="14.00">7</text>
</g>
<!-- 3&#45;&gt;7 -->
<g id="edge7" class="edge">
<title>3&#45;&gt;7</title>
<path fill="none" stroke="black" d="M198.62,-438.01C214.25,-422.38 236,-395.52 236,-367 236,-367 236,-367 236,-191 236,-138.67 166.28,-118.21 121.59,-110.47"/>
<polygon fill="black" stroke="black" points="122.07,-107 111.65,-108.88 120.97,-113.92 122.07,-107"/>
<text text-anchor="middle" x="239.5" y="-275.3" font-family="Times New Roman,serif" font-size="14.00">5</text>
</g>
<!-- 5 -->
<g id="node5" class="node">
<title>5</title>
<ellipse fill="none" stroke="black" cx="98" cy="-627" rx="27" ry="18"/>
<text text-anchor="middle" x="98" y="-623.3" font-family="Times New Roman,serif" font-size="14.00">5</text>
</g>
<!-- 5&#45;&gt;2 -->
<g id="edge9" class="edge">
<title>5&#45;&gt;2</title>
<path fill="none" stroke="black" d="M88.38,-609.92C69.95,-577.09 32.87,-499.95 49,-435 52.86,-419.46 61,-403.56 68.57,-391.04"/>
<polygon fill="black" stroke="black" points="71.53,-392.91 73.9,-382.58 65.61,-389.17 71.53,-392.91"/>
<text text-anchor="middle" x="51.5" y="-492.8" font-family="Times New Roman,serif" font-size="14.00">4</text>
</g>
<!-- 5&#45;&gt;3 -->
<g id="edge8" class="edge">
<title>5&#45;&gt;3</title>
<path fill="none" stroke="black" d="M114.29,-612.62C128.54,-600.01 148.67,-579.84 160,-558 172.53,-533.85 178.25,-503.1 180.86,-481.32"/>
<polygon fill="black" stroke="black" points="184.36,-481.43 181.93,-471.12 177.4,-480.7 184.36,-481.43"/>
<text text-anchor="middle" x="175.5" y="-536.3" font-family="Times New Roman,serif" font-size="14.00">4</text>
</g>
<!-- 6 -->
<g id="node6" class="node">
<title>6</title>
<ellipse fill="none" stroke="black" cx="85" cy="-453" rx="27" ry="18"/>
<text text-anchor="middle" x="85" y="-449.3" font-family="Times New Roman,serif" font-size="14.00">6</text>
</g>
<!-- 5&#45;&gt;6 -->
<g id="edge10" class="edge">
<title>5&#45;&gt;6</title>
<path fill="none" stroke="black" d="M92.57,-609.17C88.47,-595.54 83.19,-575.75 81,-558 77.8,-532.04 79.5,-502.18 81.58,-481.14"/>
<polygon fill="black" stroke="black" points="85.08,-481.32 82.68,-471 78.12,-480.57 85.08,-481.32"/>
<text text-anchor="middle" x="84.5" y="-536.3" font-family="Times New Roman,serif" font-size="14.00">5</text>
</g>
<!-- 10 -->
<g id="node10" class="node">
<title>10</title>
<ellipse fill="none" stroke="black" cx="124" cy="-540" rx="27" ry="18"/>
<text text-anchor="middle" x="124" y="-536.3" font-family="Times New Roman,serif" font-size="14.00">10</text>
</g>
<!-- 5&#45;&gt;10 -->
<g id="edge11" class="edge">
<title>5&#45;&gt;10</title>
<path fill="none" stroke="black" d="M103.14,-609.21C106.77,-597.33 111.71,-581.17 115.88,-567.56"/>
<polygon fill="black" stroke="black" points="119.3,-568.34 118.87,-557.76 112.6,-566.3 119.3,-568.34"/>
<text text-anchor="middle" x="115.5" y="-579.8" font-family="Times New Roman,serif" font-size="14.00">2</text>
</g>
<!-- 6&#45;&gt;2 -->
<g id="edge12" class="edge">
<title>6&#45;&gt;2</title>
<path fill="none" stroke="black" d="M85,-434.8C85,-423.16 85,-407.55 85,-394.24"/>
<polygon fill="black" stroke="black" points="88.5,-394.18 85,-384.18 81.5,-394.18 88.5,-394.18"/>
<text text-anchor="middle" x="88.5" y="-405.8" font-family="Times New Roman,serif" font-size="14.00">5</text>
</g>
<!-- 7&#45;&gt;1 -->
<g id="edge13" class="edge">
<title>7&#45;&gt;1</title>
<path fill="none" stroke="black" d="M77.9,-122.64C70.05,-143.23 59.34,-179.33 66,-210 69.25,-224.95 76.08,-240.56 82.51,-253.05"/>
<polygon fill="black" stroke="black" points="79.46,-254.77 87.28,-261.92 85.63,-251.46 79.46,-254.77"/>
<text text-anchor="middle" x="69.5" y="-188.3" font-family="Times New Roman,serif" font-size="14.00">5</text>
</g>
<!-- 9 -->
<g id="node9" class="node">
<title>9</title>
<ellipse fill="none" stroke="black" cx="27" cy="-18" rx="27" ry="18"/>
<text text-anchor="middle" x="27" y="-14.3" font-family="Times New Roman,serif" font-size="14.00">9</text>
</g>
<!-- 7&#45;&gt;9 -->
<g id="edge14" class="edge">
<title>7&#45;&gt;9</title>
<path fill="none" stroke="black" d="M74.36,-88.41C65.75,-75.79 53.47,-57.79 43.57,-43.28"/>
<polygon fill="black" stroke="black" points="46.29,-41.07 37.77,-34.78 40.51,-45.01 46.29,-41.07"/>
<text text-anchor="middle" x="62.5" y="-57.8" font-family="Times New Roman,serif" font-size="14.00">5</text>
</g>
<!-- 8&#45;&gt;7 -->
<g id="edge15" class="edge">
<title>8&#45;&gt;7</title>
<path fill="none" stroke="black" d="M104.26,-174.21C100.91,-162.33 96.34,-146.17 92.5,-132.56"/>
<polygon fill="black" stroke="black" points="95.82,-131.43 89.73,-122.76 89.08,-133.33 95.82,-131.43"/>
<text text-anchor="middle" x="101.5" y="-144.8" font-family="Times New Roman,serif" font-size="14.00">1</text>
</g>
<!-- 9&#45;&gt;1 -->
<g id="edge16" class="edge">
<title>9&#45;&gt;1</title>
<path fill="none" stroke="black" d="M26.73,-36.08C26.81,-75.03 30.9,-172.5 67,-243 69.3,-247.48 72.28,-251.88 75.47,-255.96"/>
<polygon fill="black" stroke="black" points="73.01,-258.47 82.15,-263.81 78.33,-253.93 73.01,-258.47"/>
<text text-anchor="middle" x="42.5" y="-144.8" font-family="Times New Roman,serif" font-size="14.00">5</text>
</g>
<!-- 10&#45;&gt;6 -->
<g id="edge17" class="edge">
<title>10&#45;&gt;6</title>
<path fill="none" stroke="black" d="M116.48,-522.61C110.87,-510.38 103.1,-493.44 96.68,-479.46"/>
<polygon fill="black" stroke="black" points="99.85,-477.97 92.5,-470.34 93.49,-480.89 99.85,-477.97"/>
<text text-anchor="middle" x="109.5" y="-492.8" font-family="Times New Roman,serif" font-size="14.00">5</text>
</g>
</g>
</svg>
