<?xml version="1.0" encoding="UTF-8" standalone="no"?>
<!DOCTYPE svg PUBLIC "-//W3C//DTD SVG 1.1//EN"
 "http://www.w3.org/Graphics/SVG/1.1/DTD/svg11.dtd">
<!-- Generated by graphviz version 3.0.0 (20220226.1711)
 -->
<!-- Pages: 1 -->
<svg width="337pt" height="566pt"
 viewBox="0.00 0.00 337.00 566.00" xmlns="http://www.w3.org/2000/svg" xmlns:xlink="http://www.w3.org/1999/xlink">
<g id="graph0" class="graph" transform="scale(1 1) rotate(0) translate(4 562)">
<polygon fill="white" stroke="transparent" points="-4,4 -4,-562 333,-562 333,4 -4,4"/>
<!-- 1 -->
<g id="node1" class="node">
<title>1</title>
<ellipse fill="none" stroke="black" cx="66" cy="-453" rx="27" ry="18"/>
<text text-anchor="middle" x="66" y="-449.3" font-family="Times New Roman,serif" font-size="14.00">1</text>
</g>
<!-- 3 -->
<g id="node3" class="node">
<title>3</title>
<ellipse fill="none" stroke="black" cx="187" cy="-366" rx="27" ry="18"/>
<text text-anchor="middle" x="187" y="-362.3" font-family="Times New Roman,serif" font-size="14.00">3</text>
</g>
<!-- 1&#45;&gt;3 -->
<g id="edge1" class="edge">
<title>1&#45;&gt;3</title>
<path fill="none" stroke="black" d="M83.85,-439.46C104.14,-425.21 137.44,-401.82 160.7,-385.48"/>
<polygon fill="black" stroke="black" points="162.9,-388.21 169.07,-379.59 158.88,-382.48 162.9,-388.21"/>
<text text-anchor="middle" x="136.5" y="-405.8" font-family="Times New Roman,serif" font-size="14.00">5</text>
</g>
<!-- 2 -->
<g id="node2" class="node">
<title>2</title>
<ellipse fill="none" stroke="black" cx="107" cy="-192" rx="27" ry="18"/>
<text text-anchor="middle" x="107" y="-188.3" font-family="Times New Roman,serif" font-size="14.00">2</text>
</g>
<!-- 2&#45;&gt;1 -->
<g id="edge2" class="edge">
<title>2&#45;&gt;1</title>
<path fill="none" stroke="black" d="M104.3,-210.06C97.34,-254.03 78.74,-371.54 70.29,-424.93"/>
<polygon fill="black" stroke="black" points="66.8,-424.58 68.69,-435.01 73.71,-425.68 66.8,-424.58"/>
<text text-anchor="middle" x="90.5" y="-318.8" font-family="Times New Roman,serif" font-size="14.00">5</text>
</g>
<!-- 2&#45;&gt;3 -->
<g id="edge3" class="edge">
<title>2&#45;&gt;3</title>
<path fill="none" stroke="black" d="M111.79,-210.04C117.97,-231.03 129.66,-267.53 144,-297 151.38,-312.16 161.36,-328.14 169.84,-340.8"/>
<polygon fill="black" stroke="black" points="167.17,-343.09 175.7,-349.37 172.95,-339.14 167.17,-343.09"/>
<text text-anchor="middle" x="147.5" y="-275.3" font-family="Times New Roman,serif" font-size="14.00">5</text>
</g>
<!-- 5 -->
<g id="node5" class="node">
<title>5</title>
<ellipse fill="none" stroke="black" cx="159" cy="-105" rx="27" ry="18"/>
<text text-anchor="middle" x="159" y="-101.3" font-family="Times New Roman,serif" font-size="14.00">5</text>
</g>
<!-- 2&#45;&gt;5 -->
<g id="edge4" class="edge">
<title>2&#45;&gt;5</title>
<path fill="none" stroke="black" d="M116.78,-175.01C124.41,-162.55 135.13,-145.01 143.87,-130.74"/>
<polygon fill="black" stroke="black" points="147.03,-132.27 149.26,-121.92 141.06,-128.62 147.03,-132.27"/>
<text text-anchor="middle" x="139.5" y="-144.8" font-family="Times New Roman,serif" font-size="14.00">4</text>
</g>
<!-- 4 -->
<g id="node4" class="node">
<title>4</title>
<ellipse fill="none" stroke="black" cx="187" cy="-279" rx="27" ry="18"/>
<text text-anchor="middle" x="187" y="-275.3" font-family="Times New Roman,serif" font-size="14.00">4</text>
</g>
<!-- 3&#45;&gt;4 -->
<g id="edge5" class="edge">
<title>3&#45;&gt;4</title>
<path fill="none" stroke="black" d="M187,-347.8C187,-336.16 187,-320.55 187,-307.24"/>
<polygon fill="black" stroke="black" points="190.5,-307.18 187,-297.18 183.5,-307.18 190.5,-307.18"/>
<text text-anchor="middle" x="190.5" y="-318.8" font-family="Times New Roman,serif" font-size="14.00">4</text>
</g>
<!-- 3&#45;&gt;5 -->
<g id="edge6" class="edge">
<title>3&#45;&gt;5</title>
<path fill="none" stroke="black" d="M207.87,-354.25C218.95,-348 232.42,-339.49 243,-330 298.92,-279.85 348.62,-237.18 308,-174 283.3,-135.58 230.93,-118.6 195.34,-111.28"/>
<polygon fill="black" stroke="black" points="195.81,-107.81 185.33,-109.39 194.51,-114.69 195.81,-107.81"/>
<text text-anchor="middle" x="325.5" y="-231.8" font-family="Times New Roman,serif" font-size="14.00">4</text>
</g>
<!-- 4&#45;&gt;2 -->
<g id="edge7" class="edge">
<title>4&#45;&gt;2</title>
<path fill="none" stroke="black" d="M175.38,-262.61C167.46,-252.46 156.55,-239.03 146,-228 141.38,-223.17 136.2,-218.22 131.16,-213.63"/>
<polygon fill="black" stroke="black" points="133.25,-210.81 123.45,-206.77 128.59,-216.04 133.25,-210.81"/>
<text text-anchor="middle" x="162.5" y="-231.8" font-family="Times New Roman,serif" font-size="14.00">1</text>
</g>
<!-- 7 -->
<g id="node7" class="node">
<title>7</title>
<ellipse fill="none" stroke="black" cx="272" cy="-192" rx="27" ry="18"/>
<text text-anchor="middle" x="272" y="-188.3" font-family="Times New Roman,serif" font-size="14.00">7</text>
</g>
<!-- 4&#45;&gt;7 -->
<g id="edge8" class="edge">
<title>4&#45;&gt;7</title>
<path fill="none" stroke="black" d="M201.42,-263.58C214.85,-250.15 235.06,-229.94 250.41,-214.59"/>
<polygon fill="black" stroke="black" points="252.91,-217.04 257.51,-207.49 247.96,-212.09 252.91,-217.04"/>
<text text-anchor="middle" x="237.5" y="-231.8" font-family="Times New Roman,serif" font-size="14.00">3</text>
</g>
<!-- 10 -->
<g id="node10" class="node">
<title>10</title>
<ellipse fill="none" stroke="black" cx="199" cy="-192" rx="27" ry="18"/>
<text text-anchor="middle" x="199" y="-188.3" font-family="Times New Roman,serif" font-size="14.00">10</text>
</g>
<!-- 4&#45;&gt;10 -->
<g id="edge9" class="edge">
<title>4&#45;&gt;10</title>
<path fill="none" stroke="black" d="M189.43,-260.8C191.07,-249.16 193.28,-233.55 195.15,-220.24"/>
<polygon fill="black" stroke="black" points="198.64,-220.57 196.58,-210.18 191.71,-219.59 198.64,-220.57"/>
<text text-anchor="middle" x="196.5" y="-231.8" font-family="Times New Roman,serif" font-size="14.00">1</text>
</g>
<!-- 9 -->
<g id="node9" class="node">
<title>9</title>
<ellipse fill="none" stroke="black" cx="123" cy="-18" rx="27" ry="18"/>
<text text-anchor="middle" x="123" y="-14.3" font-family="Times New Roman,serif" font-size="14.00">9</text>
</g>
<!-- 5&#45;&gt;9 -->
<g id="edge10" class="edge">
<title>5&#45;&gt;9</title>
<path fill="none" stroke="black" d="M151.89,-87.21C146.78,-75.14 139.79,-58.64 133.97,-44.89"/>
<polygon fill="black" stroke="black" points="137.1,-43.31 129.98,-35.47 130.65,-46.04 137.1,-43.31"/>
<text text-anchor="middle" x="146.5" y="-57.8" font-family="Times New Roman,serif" font-size="14.00">4</text>
</g>
<!-- 6 -->
<g id="node6" class="node">
<title>6</title>
<ellipse fill="none" stroke="black" cx="138" cy="-453" rx="27" ry="18"/>
<text text-anchor="middle" x="138" y="-449.3" font-family="Times New Roman,serif" font-size="14.00">6</text>
</g>
<!-- 6&#45;&gt;2 -->
<g id="edge11" class="edge">
<title>6&#45;&gt;2</title>
<path fill="none" stroke="black" d="M135.97,-435.01C130.71,-391.1 116.65,-273.6 110.25,-220.15"/>
<polygon fill="black" stroke="black" points="113.71,-219.57 109.04,-210.06 106.75,-220.4 113.71,-219.57"/>
<text text-anchor="middle" x="126.5" y="-318.8" font-family="Times New Roman,serif" font-size="14.00">3</text>
</g>
<!-- 6&#45;&gt;3 -->
<g id="edge12" class="edge">
<title>6&#45;&gt;3</title>
<path fill="none" stroke="black" d="M147.22,-436.01C154.36,-423.63 164.38,-406.23 172.58,-392.01"/>
<polygon fill="black" stroke="black" points="175.7,-393.62 177.66,-383.21 169.63,-390.12 175.7,-393.62"/>
<text text-anchor="middle" x="168.5" y="-405.8" font-family="Times New Roman,serif" font-size="14.00">4</text>
</g>
<!-- 7&#45;&gt;3 -->
<g id="edge13" class="edge">
<title>7&#45;&gt;3</title>
<path fill="none" stroke="black" d="M269.86,-210.38C265.66,-238.3 254.05,-293.67 225,-330 220.88,-335.15 216,-340.23 211.13,-344.85"/>
<polygon fill="black" stroke="black" points="208.65,-342.37 203.59,-351.68 213.35,-347.56 208.65,-342.37"/>
<text text-anchor="middle" x="261.5" y="-275.3" font-family="Times New Roman,serif" font-size="14.00">2</text>
</g>
<!-- 8 -->
<g id="node8" class="node">
<title>8</title>
<ellipse fill="none" stroke="black" cx="27" cy="-540" rx="27" ry="18"/>
<text text-anchor="middle" x="27" y="-536.3" font-family="Times New Roman,serif" font-size="14.00">8</text>
</g>
<!-- 8&#45;&gt;2 -->
<g id="edge15" class="edge">
<title>8&#45;&gt;2</title>
<path fill="none" stroke="black" d="M21.94,-522.24C17.25,-505.22 11,-478.03 11,-454 11,-454 11,-454 11,-278 11,-243.35 46.49,-219.41 74.31,-205.97"/>
<polygon fill="black" stroke="black" points="76.12,-208.99 83.76,-201.65 73.21,-202.63 76.12,-208.99"/>
<text text-anchor="middle" x="14.5" y="-362.3" font-family="Times New Roman,serif" font-size="14.00">4</text>
</g>
<!-- 8&#45;&gt;6 -->
<g id="edge14" class="edge">
<title>8&#45;&gt;6</title>
<path fill="none" stroke="black" d="M44.34,-525.72C62.67,-511.68 91.76,-489.41 112.66,-473.41"/>
<polygon fill="black" stroke="black" points="114.97,-476.05 120.78,-467.19 110.71,-470.49 114.97,-476.05"/>
<text text-anchor="middle" x="92.5" y="-492.8" font-family="Times New Roman,serif" font-size="14.00">1</text>
</g>
<!-- 9&#45;&gt;2 -->
<g id="edge16" class="edge">
<title>9&#45;&gt;2</title>
<path fill="none" stroke="black" d="M121.17,-36.04C119.71,-49.79 117.65,-69.63 116,-87 113.54,-112.97 111,-142.6 109.25,-163.58"/>
<polygon fill="black" stroke="black" points="105.75,-163.44 108.41,-173.69 112.73,-164.02 105.75,-163.44"/>
<text text-anchor="middle" x="119.5" y="-101.3" font-family="Times New Roman,serif" font-size="14.00">4</text>
</g>
<!-- 10&#45;&gt;3 -->
<g id="edge17" class="edge">
<title>10&#45;&gt;3</title>
<path fill="none" stroke="black" d="M217.62,-205.45C224.78,-211.35 232.15,-219.07 236,-228 238.64,-234.12 236.79,-236.38 236,-243 233.09,-267.51 231.73,-273.91 223,-297 217.39,-311.83 209.24,-327.54 202.11,-340.11"/>
<polygon fill="black" stroke="black" points="198.92,-338.64 196.92,-349.05 204.97,-342.16 198.92,-338.64"/>
<text text-anchor="middle" x="236.5" y="-275.3" font-family="Times New Roman,serif" font-size="14.00">3</text>
</g>
</g>
</svg>
