<?xml version="1.0" encoding="UTF-8" standalone="no"?>
<!DOCTYPE svg PUBLIC "-//W3C//DTD SVG 1.1//EN"
 "http://www.w3.org/Graphics/SVG/1.1/DTD/svg11.dtd">
<!-- Generated by graphviz version 3.0.0 (20220226.1711)
 -->
<!-- Pages: 1 -->
<svg width="358pt" height="566pt"
 viewBox="0.00 0.00 358.00 566.00" xmlns="http://www.w3.org/2000/svg" xmlns:xlink="http://www.w3.org/1999/xlink">
<g id="graph0" class="graph" transform="scale(1 1) rotate(0) translate(4 562)">
<polygon fill="white" stroke="transparent" points="-4,4 -4,-562 354,-562 354,4 -4,4"/>
<!-- 1 -->
<g id="node1" class="node">
<title>1</title>
<ellipse fill="none" stroke="black" cx="147" cy="-540" rx="27" ry="18"/>
<text text-anchor="middle" x="147" y="-536.3" font-family="Times New Roman,serif" font-size="14.00">1</text>
</g>
<!-- 3 -->
<g id="node3" class="node">
<title>3</title>
<ellipse fill="none" stroke="black" cx="121" cy="-192" rx="27" ry="18"/>
<text text-anchor="middle" x="121" y="-188.3" font-family="Times New Roman,serif" font-size="14.00">3</text>
</g>
<!-- 1&#45;&gt;3 -->
<g id="edge1" class="edge">
<title>1&#45;&gt;3</title>
<path fill="none" stroke="black" d="M123.32,-531C93.47,-519.24 46,-494.22 46,-454 46,-454 46,-454 46,-278 46,-248.77 71.25,-224.84 92.45,-209.91"/>
<polygon fill="black" stroke="black" points="94.53,-212.72 100.9,-204.25 90.64,-206.9 94.53,-212.72"/>
<text text-anchor="middle" x="49.5" y="-362.3" font-family="Times New Roman,serif" font-size="14.00">4</text>
</g>
<!-- 5 -->
<g id="node5" class="node">
<title>5</title>
<ellipse fill="none" stroke="black" cx="101" cy="-279" rx="27" ry="18"/>
<text text-anchor="middle" x="101" y="-275.3" font-family="Times New Roman,serif" font-size="14.00">5</text>
</g>
<!-- 1&#45;&gt;5 -->
<g id="edge2" class="edge">
<title>1&#45;&gt;5</title>
<path fill="none" stroke="black" d="M143.98,-522.01C136.18,-478.1 115.32,-360.6 105.82,-307.15"/>
<polygon fill="black" stroke="black" points="109.22,-306.29 104.03,-297.06 102.33,-307.51 109.22,-306.29"/>
<text text-anchor="middle" x="128.5" y="-405.8" font-family="Times New Roman,serif" font-size="14.00">2</text>
</g>
<!-- 6 -->
<g id="node6" class="node">
<title>6</title>
<ellipse fill="none" stroke="black" cx="199" cy="-453" rx="27" ry="18"/>
<text text-anchor="middle" x="199" y="-449.3" font-family="Times New Roman,serif" font-size="14.00">6</text>
</g>
<!-- 1&#45;&gt;6 -->
<g id="edge3" class="edge">
<title>1&#45;&gt;6</title>
<path fill="none" stroke="black" d="M156.78,-523.01C164.41,-510.55 175.13,-493.01 183.87,-478.74"/>
<polygon fill="black" stroke="black" points="187.03,-480.27 189.26,-469.92 181.06,-476.62 187.03,-480.27"/>
<text text-anchor="middle" x="179.5" y="-492.8" font-family="Times New Roman,serif" font-size="14.00">3</text>
</g>
<!-- 8 -->
<g id="node8" class="node">
<title>8</title>
<ellipse fill="none" stroke="black" cx="121" cy="-105" rx="27" ry="18"/>
<text text-anchor="middle" x="121" y="-101.3" font-family="Times New Roman,serif" font-size="14.00">8</text>
</g>
<!-- 1&#45;&gt;8 -->
<g id="edge4" class="edge">
<title>1&#45;&gt;8</title>
<path fill="none" stroke="black" d="M120.72,-535.82C78.44,-529.07 0,-509.13 0,-454 0,-454 0,-454 0,-191 0,-179.78 56.46,-144.22 92.25,-122.82"/>
<polygon fill="black" stroke="black" points="94.48,-125.56 101.29,-117.44 90.91,-119.54 94.48,-125.56"/>
<text text-anchor="middle" x="3.5" y="-318.8" font-family="Times New Roman,serif" font-size="14.00">5</text>
</g>
<!-- 2 -->
<g id="node2" class="node">
<title>2</title>
<ellipse fill="none" stroke="black" cx="177" cy="-366" rx="27" ry="18"/>
<text text-anchor="middle" x="177" y="-362.3" font-family="Times New Roman,serif" font-size="14.00">2</text>
</g>
<!-- 2&#45;&gt;1 -->
<g id="edge5" class="edge">
<title>2&#45;&gt;1</title>
<path fill="none" stroke="black" d="M170.71,-383.79C165.89,-397.4 159.48,-417.17 156,-435 150.97,-460.75 148.75,-490.63 147.77,-511.74"/>
<polygon fill="black" stroke="black" points="144.27,-511.78 147.36,-521.91 151.26,-512.06 144.27,-511.78"/>
<text text-anchor="middle" x="159.5" y="-449.3" font-family="Times New Roman,serif" font-size="14.00">3</text>
</g>
<!-- 2&#45;&gt;3 -->
<g id="edge6" class="edge">
<title>2&#45;&gt;3</title>
<path fill="none" stroke="black" d="M171.53,-348.19C161.78,-318.27 141.35,-255.52 129.68,-219.65"/>
<polygon fill="black" stroke="black" points="132.92,-218.3 126.49,-209.87 126.26,-220.47 132.92,-218.3"/>
<text text-anchor="middle" x="157.5" y="-275.3" font-family="Times New Roman,serif" font-size="14.00">4</text>
</g>
<!-- 4 -->
<g id="node4" class="node">
<title>4</title>
<ellipse fill="none" stroke="black" cx="288" cy="-279" rx="27" ry="18"/>
<text text-anchor="middle" x="288" y="-275.3" font-family="Times New Roman,serif" font-size="14.00">4</text>
</g>
<!-- 2&#45;&gt;4 -->
<g id="edge7" class="edge">
<title>2&#45;&gt;4</title>
<path fill="none" stroke="black" d="M194.34,-351.72C212.67,-337.68 241.76,-315.41 262.66,-299.41"/>
<polygon fill="black" stroke="black" points="264.97,-302.05 270.78,-293.19 260.71,-296.49 264.97,-302.05"/>
<text text-anchor="middle" x="242.5" y="-318.8" font-family="Times New Roman,serif" font-size="14.00">3</text>
</g>
<!-- 2&#45;&gt;5 -->
<g id="edge8" class="edge">
<title>2&#45;&gt;5</title>
<path fill="none" stroke="black" d="M162.53,-350.58C156.4,-344.35 149.25,-336.91 143,-330 135.17,-321.33 126.83,-311.54 119.67,-302.93"/>
<polygon fill="black" stroke="black" points="122.29,-300.6 113.22,-295.12 116.89,-305.06 122.29,-300.6"/>
<text text-anchor="middle" x="146.5" y="-318.8" font-family="Times New Roman,serif" font-size="14.00">4</text>
</g>
<!-- 7 -->
<g id="node7" class="node">
<title>7</title>
<ellipse fill="none" stroke="black" cx="216" cy="-279" rx="27" ry="18"/>
<text text-anchor="middle" x="216" y="-275.3" font-family="Times New Roman,serif" font-size="14.00">7</text>
</g>
<!-- 2&#45;&gt;7 -->
<g id="edge9" class="edge">
<title>2&#45;&gt;7</title>
<path fill="none" stroke="black" d="M184.52,-348.61C190.13,-336.38 197.9,-319.44 204.32,-305.46"/>
<polygon fill="black" stroke="black" points="207.51,-306.89 208.5,-296.34 201.15,-303.97 207.51,-306.89"/>
<text text-anchor="middle" x="201.5" y="-318.8" font-family="Times New Roman,serif" font-size="14.00">3</text>
</g>
<!-- 3&#45;&gt;8 -->
<g id="edge10" class="edge">
<title>3&#45;&gt;8</title>
<path fill="none" stroke="black" d="M121,-173.8C121,-162.16 121,-146.55 121,-133.24"/>
<polygon fill="black" stroke="black" points="124.5,-133.18 121,-123.18 117.5,-133.18 124.5,-133.18"/>
<text text-anchor="middle" x="124.5" y="-144.8" font-family="Times New Roman,serif" font-size="14.00">2</text>
</g>
<!-- 4&#45;&gt;1 -->
<g id="edge11" class="edge">
<title>4&#45;&gt;1</title>
<path fill="none" stroke="black" d="M286.85,-297.06C283.76,-332.38 272.72,-414.88 235,-471 220.12,-493.13 195.68,-511.18 176.33,-523.1"/>
<polygon fill="black" stroke="black" points="174.39,-520.19 167.57,-528.3 177.96,-526.21 174.39,-520.19"/>
<text text-anchor="middle" x="269.5" y="-405.8" font-family="Times New Roman,serif" font-size="14.00">2</text>
</g>
<!-- 10 -->
<g id="node10" class="node">
<title>10</title>
<ellipse fill="none" stroke="black" cx="316" cy="-192" rx="27" ry="18"/>
<text text-anchor="middle" x="316" y="-188.3" font-family="Times New Roman,serif" font-size="14.00">10</text>
</g>
<!-- 4&#45;&gt;10 -->
<g id="edge12" class="edge">
<title>4&#45;&gt;10</title>
<path fill="none" stroke="black" d="M293.53,-261.21C297.44,-249.33 302.77,-233.17 307.25,-219.56"/>
<polygon fill="black" stroke="black" points="310.68,-220.35 310.48,-209.76 304.03,-218.16 310.68,-220.35"/>
<text text-anchor="middle" x="306.5" y="-231.8" font-family="Times New Roman,serif" font-size="14.00">5</text>
</g>
<!-- 6&#45;&gt;2 -->
<g id="edge13" class="edge">
<title>6&#45;&gt;2</title>
<path fill="none" stroke="black" d="M194.65,-435.21C191.6,-423.41 187.45,-407.38 183.94,-393.82"/>
<polygon fill="black" stroke="black" points="187.31,-392.85 181.41,-384.05 180.53,-394.61 187.31,-392.85"/>
<text text-anchor="middle" x="192.5" y="-405.8" font-family="Times New Roman,serif" font-size="14.00">2</text>
</g>
<!-- 7&#45;&gt;3 -->
<g id="edge14" class="edge">
<title>7&#45;&gt;3</title>
<path fill="none" stroke="black" d="M206.02,-261.9C199.03,-251.44 188.99,-237.95 178,-228 169.93,-220.69 160.13,-214.04 150.94,-208.55"/>
<polygon fill="black" stroke="black" points="152.47,-205.39 142.05,-203.46 148.99,-211.47 152.47,-205.39"/>
<text text-anchor="middle" x="194.5" y="-231.8" font-family="Times New Roman,serif" font-size="14.00">2</text>
</g>
<!-- 9 -->
<g id="node9" class="node">
<title>9</title>
<ellipse fill="none" stroke="black" cx="85" cy="-18" rx="27" ry="18"/>
<text text-anchor="middle" x="85" y="-14.3" font-family="Times New Roman,serif" font-size="14.00">9</text>
</g>
<!-- 8&#45;&gt;9 -->
<g id="edge15" class="edge">
<title>8&#45;&gt;9</title>
<path fill="none" stroke="black" d="M113.89,-87.21C108.78,-75.14 101.79,-58.64 95.97,-44.89"/>
<polygon fill="black" stroke="black" points="99.1,-43.31 91.98,-35.47 92.65,-46.04 99.1,-43.31"/>
<text text-anchor="middle" x="108.5" y="-57.8" font-family="Times New Roman,serif" font-size="14.00">2</text>
</g>
<!-- 9&#45;&gt;3 -->
<g id="edge16" class="edge">
<title>9&#45;&gt;3</title>
<path fill="none" stroke="black" d="M80.35,-35.95C75.41,-56.86 69.39,-93.28 78,-123 82.74,-139.35 92.71,-155.55 101.86,-168.03"/>
<polygon fill="black" stroke="black" points="99.13,-170.22 107.99,-176.03 104.69,-165.96 99.13,-170.22"/>
<text text-anchor="middle" x="81.5" y="-101.3" font-family="Times New Roman,serif" font-size="14.00">5</text>
</g>
<!-- 10&#45;&gt;1 -->
<g id="edge17" class="edge">
<title>10&#45;&gt;1</title>
<path fill="none" stroke="black" d="M324.39,-209.13C332.32,-225.88 343,-253.07 343,-278 343,-454 343,-454 343,-454 343,-522.44 241.18,-536.38 184.31,-538.83"/>
<polygon fill="black" stroke="black" points="184.13,-535.33 174.25,-539.16 184.36,-542.33 184.13,-535.33"/>
<text text-anchor="middle" x="346.5" y="-362.3" font-family="Times New Roman,serif" font-size="14.00">1</text>
</g>
</g>
</svg>
