<?xml version="1.0" encoding="UTF-8" standalone="no"?>
<!DOCTYPE svg PUBLIC "-//W3C//DTD SVG 1.1//EN"
 "http://www.w3.org/Graphics/SVG/1.1/DTD/svg11.dtd">
<!-- Generated by graphviz version 3.0.0 (20220226.1711)
 -->
<!-- Pages: 1 -->
<svg width="418pt" height="305pt"
 viewBox="0.00 0.00 418.05 305.00" xmlns="http://www.w3.org/2000/svg" xmlns:xlink="http://www.w3.org/1999/xlink">
<g id="graph0" class="graph" transform="scale(1 1) rotate(0) translate(4 301)">
<polygon fill="white" stroke="transparent" points="-4,4 -4,-301 414.05,-301 414.05,4 -4,4"/>
<!-- 1 -->
<g id="node1" class="node">
<title>1</title>
<ellipse fill="none" stroke="black" cx="217.05" cy="-105" rx="27" ry="18"/>
<text text-anchor="middle" x="217.05" y="-101.3" font-family="Times New Roman,serif" font-size="14.00">1</text>
</g>
<!-- 3 -->
<g id="node3" class="node">
<title>3</title>
<ellipse fill="none" stroke="black" cx="258.05" cy="-18" rx="27" ry="18"/>
<text text-anchor="middle" x="258.05" y="-14.3" font-family="Times New Roman,serif" font-size="14.00">3</text>
</g>
<!-- 1&#45;&gt;3 -->
<g id="edge1" class="edge">
<title>1&#45;&gt;3</title>
<path fill="none" stroke="black" d="M224.96,-87.61C230.85,-75.38 239.03,-58.44 245.77,-44.46"/>
<polygon fill="black" stroke="black" points="248.98,-45.87 250.17,-35.34 242.67,-42.82 248.98,-45.87"/>
<text text-anchor="middle" x="243.55" y="-57.8" font-family="Times New Roman,serif" font-size="14.00">1</text>
</g>
<!-- 2 -->
<g id="node2" class="node">
<title>2</title>
<ellipse fill="none" stroke="black" cx="164.05" cy="-192" rx="27" ry="18"/>
<text text-anchor="middle" x="164.05" y="-188.3" font-family="Times New Roman,serif" font-size="14.00">2</text>
</g>
<!-- 2&#45;&gt;1 -->
<g id="edge2" class="edge">
<title>2&#45;&gt;1</title>
<path fill="none" stroke="black" d="M174.02,-175.01C181.79,-162.55 192.72,-145.01 201.62,-130.74"/>
<polygon fill="black" stroke="black" points="204.81,-132.25 207.13,-121.92 198.87,-128.55 204.81,-132.25"/>
<text text-anchor="middle" x="197.55" y="-144.8" font-family="Times New Roman,serif" font-size="14.00">4</text>
</g>
<!-- 2&#45;&gt;3 -->
<g id="edge3" class="edge">
<title>2&#45;&gt;3</title>
<path fill="none" stroke="black" d="M161.84,-174.01C159.85,-152.42 159.2,-114.64 174.05,-87 186.24,-64.31 209.51,-46.41 228.47,-34.67"/>
<polygon fill="black" stroke="black" points="230.27,-37.68 237.09,-29.57 226.7,-31.65 230.27,-37.68"/>
<text text-anchor="middle" x="177.55" y="-101.3" font-family="Times New Roman,serif" font-size="14.00">4</text>
</g>
<!-- 5 -->
<g id="node5" class="node">
<title>5</title>
<ellipse fill="none" stroke="black" cx="102.05" cy="-105" rx="27" ry="18"/>
<text text-anchor="middle" x="102.05" y="-101.3" font-family="Times New Roman,serif" font-size="14.00">5</text>
</g>
<!-- 2&#45;&gt;5 -->
<g id="edge4" class="edge">
<title>2&#45;&gt;5</title>
<path fill="none" stroke="black" d="M152.68,-175.41C143.33,-162.59 129.93,-144.22 119.26,-129.6"/>
<polygon fill="black" stroke="black" points="122.07,-127.51 113.35,-121.49 116.42,-131.63 122.07,-127.51"/>
<text text-anchor="middle" x="140.55" y="-144.8" font-family="Times New Roman,serif" font-size="14.00">3</text>
</g>
<!-- 4 -->
<g id="node4" class="node">
<title>4</title>
<ellipse fill="none" stroke="black" cx="272.05" cy="-279" rx="27" ry="18"/>
<text text-anchor="middle" x="272.05" y="-275.3" font-family="Times New Roman,serif" font-size="14.00">4</text>
</g>
<!-- 4&#45;&gt;2 -->
<g id="edge5" class="edge">
<title>4&#45;&gt;2</title>
<path fill="none" stroke="black" d="M255.18,-264.72C237.34,-250.68 209.04,-228.41 188.71,-212.41"/>
<polygon fill="black" stroke="black" points="190.83,-209.62 180.81,-206.19 186.5,-215.12 190.83,-209.62"/>
<text text-anchor="middle" x="228.55" y="-231.8" font-family="Times New Roman,serif" font-size="14.00">1</text>
</g>
<!-- 4&#45;&gt;3 -->
<g id="edge6" class="edge">
<title>4&#45;&gt;3</title>
<path fill="none" stroke="black" d="M271.13,-261.01C268.76,-217.1 262.41,-99.6 259.52,-46.15"/>
<polygon fill="black" stroke="black" points="263.01,-45.85 258.97,-36.06 256.02,-46.23 263.01,-45.85"/>
<text text-anchor="middle" x="268.55" y="-144.8" font-family="Times New Roman,serif" font-size="14.00">1</text>
</g>
<!-- 7 -->
<g id="node7" class="node">
<title>7</title>
<ellipse fill="none" stroke="black" cx="327.05" cy="-105" rx="27" ry="18"/>
<text text-anchor="middle" x="327.05" y="-101.3" font-family="Times New Roman,serif" font-size="14.00">7</text>
</g>
<!-- 4&#45;&gt;7 -->
<g id="edge7" class="edge">
<title>4&#45;&gt;7</title>
<path fill="none" stroke="black" d="M279.05,-261.38C281.39,-255.6 283.94,-249.06 286.05,-243 299.25,-205.17 312.1,-160.59 319.8,-132.81"/>
<polygon fill="black" stroke="black" points="323.21,-133.6 322.48,-123.03 316.46,-131.74 323.21,-133.6"/>
<text text-anchor="middle" x="310.55" y="-188.3" font-family="Times New Roman,serif" font-size="14.00">3</text>
</g>
<!-- 5&#45;&gt;3 -->
<g id="edge8" class="edge">
<title>5&#45;&gt;3</title>
<path fill="none" stroke="black" d="M111.96,-87.9C119.5,-76.9 130.82,-62.76 144.05,-54 167.51,-38.46 198.18,-29.56 221.8,-24.62"/>
<polygon fill="black" stroke="black" points="222.63,-28.03 231.78,-22.69 221.3,-21.16 222.63,-28.03"/>
<text text-anchor="middle" x="147.55" y="-57.8" font-family="Times New Roman,serif" font-size="14.00">3</text>
</g>
<!-- 6 -->
<g id="node6" class="node">
<title>6</title>
<ellipse fill="none" stroke="black" cx="48.05" cy="-279" rx="27" ry="18"/>
<text text-anchor="middle" x="48.05" y="-275.3" font-family="Times New Roman,serif" font-size="14.00">6</text>
</g>
<!-- 6&#45;&gt;2 -->
<g id="edge9" class="edge">
<title>6&#45;&gt;2</title>
<path fill="none" stroke="black" d="M65.67,-265.09C84.92,-250.99 115.94,-228.25 138,-212.09"/>
<polygon fill="black" stroke="black" points="140.27,-214.77 146.27,-206.03 136.13,-209.12 140.27,-214.77"/>
<text text-anchor="middle" x="116.55" y="-231.8" font-family="Times New Roman,serif" font-size="14.00">5</text>
</g>
<!-- 6&#45;&gt;5 -->
<g id="edge10" class="edge">
<title>6&#45;&gt;5</title>
<path fill="none" stroke="black" d="M34.04,-263.51C16.06,-243.08 -11,-204.85 5.05,-174 18.59,-147.98 47.15,-129.84 69.79,-118.89"/>
<polygon fill="black" stroke="black" points="71.44,-121.98 79.07,-114.63 68.52,-115.62 71.44,-121.98"/>
<text text-anchor="middle" x="8.55" y="-188.3" font-family="Times New Roman,serif" font-size="14.00">2</text>
</g>
<!-- 8 -->
<g id="node8" class="node">
<title>8</title>
<ellipse fill="none" stroke="black" cx="48.05" cy="-192" rx="27" ry="18"/>
<text text-anchor="middle" x="48.05" y="-188.3" font-family="Times New Roman,serif" font-size="14.00">8</text>
</g>
<!-- 6&#45;&gt;8 -->
<g id="edge11" class="edge">
<title>6&#45;&gt;8</title>
<path fill="none" stroke="black" d="M48.05,-260.8C48.05,-249.16 48.05,-233.55 48.05,-220.24"/>
<polygon fill="black" stroke="black" points="51.55,-220.18 48.05,-210.18 44.55,-220.18 51.55,-220.18"/>
<text text-anchor="middle" x="51.55" y="-231.8" font-family="Times New Roman,serif" font-size="14.00">2</text>
</g>
<!-- 7&#45;&gt;3 -->
<g id="edge12" class="edge">
<title>7&#45;&gt;3</title>
<path fill="none" stroke="black" d="M314.71,-88.8C304.12,-75.75 288.68,-56.74 276.6,-41.85"/>
<polygon fill="black" stroke="black" points="279.3,-39.62 270.28,-34.06 273.86,-44.03 279.3,-39.62"/>
<text text-anchor="middle" x="299.55" y="-57.8" font-family="Times New Roman,serif" font-size="14.00">5</text>
</g>
<!-- 8&#45;&gt;5 -->
<g id="edge13" class="edge">
<title>8&#45;&gt;5</title>
<path fill="none" stroke="black" d="M58.21,-175.01C66.13,-162.55 77.27,-145.01 86.33,-130.74"/>
<polygon fill="black" stroke="black" points="89.53,-132.23 91.94,-121.92 83.62,-128.48 89.53,-132.23"/>
<text text-anchor="middle" x="82.55" y="-144.8" font-family="Times New Roman,serif" font-size="14.00">2</text>
</g>
<!-- 9 -->
<g id="node9" class="node">
<title>9</title>
<ellipse fill="none" stroke="black" cx="138.05" cy="-279" rx="27" ry="18"/>
<text text-anchor="middle" x="138.05" y="-275.3" font-family="Times New Roman,serif" font-size="14.00">9</text>
</g>
<!-- 9&#45;&gt;2 -->
<g id="edge14" class="edge">
<title>9&#45;&gt;2</title>
<path fill="none" stroke="black" d="M143.19,-261.21C146.82,-249.33 151.76,-233.17 155.93,-219.56"/>
<polygon fill="black" stroke="black" points="159.35,-220.34 158.92,-209.76 152.65,-218.3 159.35,-220.34"/>
<text text-anchor="middle" x="156.55" y="-231.8" font-family="Times New Roman,serif" font-size="14.00">5</text>
</g>
<!-- 9&#45;&gt;5 -->
<g id="edge15" class="edge">
<title>9&#45;&gt;5</title>
<path fill="none" stroke="black" d="M133.48,-261.02C129.87,-247.31 124.83,-227.48 121.05,-210 115.44,-184.03 110.1,-154.17 106.52,-133.13"/>
<polygon fill="black" stroke="black" points="109.92,-132.28 104.81,-123 103.02,-133.44 109.92,-132.28"/>
<text text-anchor="middle" x="124.55" y="-188.3" font-family="Times New Roman,serif" font-size="14.00">2</text>
</g>
<!-- 10 -->
<g id="node10" class="node">
<title>10</title>
<ellipse fill="none" stroke="black" cx="383.05" cy="-192" rx="27" ry="18"/>
<text text-anchor="middle" x="383.05" y="-188.3" font-family="Times New Roman,serif" font-size="14.00">10</text>
</g>
<!-- 10&#45;&gt;3 -->
<g id="edge17" class="edge">
<title>10&#45;&gt;3</title>
<path fill="none" stroke="black" d="M383.71,-173.99C383.74,-152.04 380.93,-113.53 363.05,-87 345.55,-61.04 314.47,-42.76 290.65,-31.73"/>
<polygon fill="black" stroke="black" points="291.83,-28.43 281.27,-27.59 289.01,-34.83 291.83,-28.43"/>
<text text-anchor="middle" x="380.55" y="-101.3" font-family="Times New Roman,serif" font-size="14.00">5</text>
</g>
<!-- 10&#45;&gt;7 -->
<g id="edge16" class="edge">
<title>10&#45;&gt;7</title>
<path fill="none" stroke="black" d="M372.52,-175.01C364.23,-162.43 352.53,-144.68 343.08,-130.33"/>
<polygon fill="black" stroke="black" points="345.96,-128.34 337.54,-121.92 340.12,-132.19 345.96,-128.34"/>
<text text-anchor="middle" x="361.55" y="-144.8" font-family="Times New Roman,serif" font-size="14.00">5</text>
</g>
</g>
</svg>
