<?xml version="1.0" encoding="UTF-8" standalone="no"?>
<!DOCTYPE svg PUBLIC "-//W3C//DTD SVG 1.1//EN"
 "http://www.w3.org/Graphics/SVG/1.1/DTD/svg11.dtd">
<!-- Generated by graphviz version 3.0.0 (20220226.1711)
 -->
<!-- Pages: 1 -->
<svg width="293pt" height="587pt"
 viewBox="0.00 0.00 293.00 587.00" xmlns="http://www.w3.org/2000/svg" xmlns:xlink="http://www.w3.org/1999/xlink">
<g id="graph0" class="graph" transform="scale(1 1) rotate(0) translate(4 583)">
<polygon fill="white" stroke="transparent" points="-4,4 -4,-583 289,-583 289,4 -4,4"/>
<!-- 1 -->
<g id="node1" class="node">
<title>1</title>
<ellipse fill="none" stroke="black" cx="149" cy="-387" rx="27" ry="18"/>
<text text-anchor="middle" x="149" y="-383.3" font-family="Times New Roman,serif" font-size="14.00">1</text>
</g>
<!-- 3 -->
<g id="node3" class="node">
<title>3</title>
<ellipse fill="none" stroke="black" cx="235" cy="-300" rx="27" ry="18"/>
<text text-anchor="middle" x="235" y="-296.3" font-family="Times New Roman,serif" font-size="14.00">3</text>
</g>
<!-- 1&#45;&gt;3 -->
<g id="edge1" class="edge">
<title>1&#45;&gt;3</title>
<path fill="none" stroke="black" d="M163.59,-371.58C177.18,-358.15 197.62,-337.94 213.16,-322.59"/>
<polygon fill="black" stroke="black" points="215.69,-325.01 220.34,-315.49 210.77,-320.03 215.69,-325.01"/>
<text text-anchor="middle" x="201.5" y="-339.8" font-family="Times New Roman,serif" font-size="14.00">2</text>
</g>
<!-- 9 -->
<g id="node9" class="node">
<title>9</title>
<ellipse fill="none" stroke="black" cx="168" cy="-246" rx="27" ry="18"/>
<text text-anchor="middle" x="168" y="-242.3" font-family="Times New Roman,serif" font-size="14.00">9</text>
</g>
<!-- 1&#45;&gt;9 -->
<g id="edge2" class="edge">
<title>1&#45;&gt;9</title>
<path fill="none" stroke="black" d="M151.33,-368.96C154.56,-345.3 160.45,-302.26 164.29,-274.15"/>
<polygon fill="black" stroke="black" points="167.76,-274.57 165.65,-264.18 160.83,-273.62 167.76,-274.57"/>
<text text-anchor="middle" x="159.5" y="-339.8" font-family="Times New Roman,serif" font-size="14.00">1</text>
</g>
<!-- 2 -->
<g id="node2" class="node">
<title>2</title>
<ellipse fill="none" stroke="black" cx="74" cy="-192" rx="27" ry="18"/>
<text text-anchor="middle" x="74" y="-188.3" font-family="Times New Roman,serif" font-size="14.00">2</text>
</g>
<!-- 2&#45;&gt;1 -->
<g id="edge3" class="edge">
<title>2&#45;&gt;1</title>
<path fill="none" stroke="black" d="M75.76,-210.17C79.45,-240.35 89.91,-304.13 116,-351 118.74,-355.93 122.33,-360.69 126.13,-365.03"/>
<polygon fill="black" stroke="black" points="123.64,-367.49 133.06,-372.33 128.72,-362.67 123.64,-367.49"/>
<text text-anchor="middle" x="104.5" y="-296.3" font-family="Times New Roman,serif" font-size="14.00">4</text>
</g>
<!-- 4 -->
<g id="node4" class="node">
<title>4</title>
<ellipse fill="none" stroke="black" cx="114" cy="-105" rx="27" ry="18"/>
<text text-anchor="middle" x="114" y="-101.3" font-family="Times New Roman,serif" font-size="14.00">4</text>
</g>
<!-- 2&#45;&gt;4 -->
<g id="edge4" class="edge">
<title>2&#45;&gt;4</title>
<path fill="none" stroke="black" d="M81.71,-174.61C87.47,-162.38 95.44,-145.44 102.02,-131.46"/>
<polygon fill="black" stroke="black" points="105.22,-132.88 106.31,-122.34 98.89,-129.9 105.22,-132.88"/>
<text text-anchor="middle" x="100.5" y="-144.8" font-family="Times New Roman,serif" font-size="14.00">3</text>
</g>
<!-- 3&#45;&gt;2 -->
<g id="edge5" class="edge">
<title>3&#45;&gt;2</title>
<path fill="none" stroke="black" d="M227.77,-282.54C219.31,-263.98 205.29,-235.42 196,-228 182.66,-217.34 140.76,-206.76 109.77,-200.07"/>
<polygon fill="black" stroke="black" points="110.24,-196.59 99.73,-197.96 108.79,-203.44 110.24,-196.59"/>
<text text-anchor="middle" x="221.5" y="-242.3" font-family="Times New Roman,serif" font-size="14.00">3</text>
</g>
<!-- 5 -->
<g id="node5" class="node">
<title>5</title>
<ellipse fill="none" stroke="black" cx="229" cy="-192" rx="27" ry="18"/>
<text text-anchor="middle" x="229" y="-188.3" font-family="Times New Roman,serif" font-size="14.00">5</text>
</g>
<!-- 3&#45;&gt;5 -->
<g id="edge6" class="edge">
<title>3&#45;&gt;5</title>
<path fill="none" stroke="black" d="M234.04,-281.97C233.1,-265.38 231.65,-239.88 230.55,-220.43"/>
<polygon fill="black" stroke="black" points="234.04,-220.13 229.98,-210.34 227.05,-220.52 234.04,-220.13"/>
<text text-anchor="middle" x="235.5" y="-242.3" font-family="Times New Roman,serif" font-size="14.00">4</text>
</g>
<!-- 4&#45;&gt;1 -->
<g id="edge7" class="edge">
<title>4&#45;&gt;1</title>
<path fill="none" stroke="black" d="M115.8,-123.08C118.9,-152.08 125.52,-212.78 132,-264 136.14,-296.71 141.46,-334.27 145.04,-358.98"/>
<polygon fill="black" stroke="black" points="141.6,-359.65 146.5,-369.04 148.53,-358.64 141.6,-359.65"/>
<text text-anchor="middle" x="135.5" y="-242.3" font-family="Times New Roman,serif" font-size="14.00">3</text>
</g>
<!-- 5&#45;&gt;1 -->
<g id="edge8" class="edge">
<title>5&#45;&gt;1</title>
<path fill="none" stroke="black" d="M241.85,-208.08C260.97,-232.46 292.45,-281.48 271,-318 252.32,-349.79 212.78,-367.81 183.76,-377.2"/>
<polygon fill="black" stroke="black" points="182.54,-373.91 173.98,-380.17 184.57,-380.61 182.54,-373.91"/>
<text text-anchor="middle" x="281.5" y="-296.3" font-family="Times New Roman,serif" font-size="14.00">3</text>
</g>
<!-- 8 -->
<g id="node8" class="node">
<title>8</title>
<ellipse fill="none" stroke="black" cx="186" cy="-105" rx="27" ry="18"/>
<text text-anchor="middle" x="186" y="-101.3" font-family="Times New Roman,serif" font-size="14.00">8</text>
</g>
<!-- 5&#45;&gt;8 -->
<g id="edge9" class="edge">
<title>5&#45;&gt;8</title>
<path fill="none" stroke="black" d="M220.71,-174.61C214.52,-162.38 205.95,-145.44 198.88,-131.46"/>
<polygon fill="black" stroke="black" points="201.9,-129.68 194.27,-122.34 195.66,-132.84 201.9,-129.68"/>
<text text-anchor="middle" x="214.5" y="-144.8" font-family="Times New Roman,serif" font-size="14.00">4</text>
</g>
<!-- 6 -->
<g id="node6" class="node">
<title>6</title>
<ellipse fill="none" stroke="black" cx="249" cy="-18" rx="27" ry="18"/>
<text text-anchor="middle" x="249" y="-14.3" font-family="Times New Roman,serif" font-size="14.00">6</text>
</g>
<!-- 6&#45;&gt;3 -->
<g id="edge10" class="edge">
<title>6&#45;&gt;3</title>
<path fill="none" stroke="black" d="M253.2,-35.97C260.87,-69.46 275.45,-146.3 265,-210 261.43,-231.79 253.24,-255.43 246.32,-272.87"/>
<polygon fill="black" stroke="black" points="242.98,-271.78 242.43,-282.36 249.46,-274.43 242.98,-271.78"/>
<text text-anchor="middle" x="271.5" y="-144.8" font-family="Times New Roman,serif" font-size="14.00">2</text>
</g>
<!-- 6&#45;&gt;5 -->
<g id="edge11" class="edge">
<title>6&#45;&gt;5</title>
<path fill="none" stroke="black" d="M247.02,-36.05C243.55,-65.88 236.35,-127.76 232.18,-163.64"/>
<polygon fill="black" stroke="black" points="228.67,-163.54 230.99,-173.88 235.62,-164.35 228.67,-163.54"/>
<text text-anchor="middle" x="243.5" y="-101.3" font-family="Times New Roman,serif" font-size="14.00">3</text>
</g>
<!-- 7 -->
<g id="node7" class="node">
<title>7</title>
<ellipse fill="none" stroke="black" cx="66" cy="-474" rx="27" ry="18"/>
<text text-anchor="middle" x="66" y="-470.3" font-family="Times New Roman,serif" font-size="14.00">7</text>
</g>
<!-- 7&#45;&gt;1 -->
<g id="edge13" class="edge">
<title>7&#45;&gt;1</title>
<path fill="none" stroke="black" d="M80.08,-458.58C93.08,-445.27 112.57,-425.31 127.51,-410.01"/>
<polygon fill="black" stroke="black" points="130.37,-412.09 134.85,-402.49 125.36,-407.2 130.37,-412.09"/>
<text text-anchor="middle" x="116.5" y="-426.8" font-family="Times New Roman,serif" font-size="14.00">4</text>
</g>
<!-- 7&#45;&gt;2 -->
<g id="edge12" class="edge">
<title>7&#45;&gt;2</title>
<path fill="none" stroke="black" d="M66.49,-455.91C67.83,-408.95 71.58,-277.65 73.22,-220.34"/>
<polygon fill="black" stroke="black" points="76.72,-220.32 73.51,-210.23 69.72,-220.12 76.72,-220.32"/>
<text text-anchor="middle" x="73.5" y="-339.8" font-family="Times New Roman,serif" font-size="14.00">2</text>
</g>
<!-- 8&#45;&gt;6 -->
<g id="edge14" class="edge">
<title>8&#45;&gt;6</title>
<path fill="none" stroke="black" d="M197.56,-88.41C207.06,-75.59 220.67,-57.22 231.51,-42.6"/>
<polygon fill="black" stroke="black" points="234.38,-44.61 237.52,-34.49 228.75,-40.44 234.38,-44.61"/>
<text text-anchor="middle" x="224.5" y="-57.8" font-family="Times New Roman,serif" font-size="14.00">3</text>
</g>
<!-- 9&#45;&gt;4 -->
<g id="edge15" class="edge">
<title>9&#45;&gt;4</title>
<path fill="none" stroke="black" d="M166.31,-227.98C163.66,-206.69 157.29,-169.56 143,-141 140.78,-136.56 137.9,-132.19 134.81,-128.12"/>
<polygon fill="black" stroke="black" points="137.4,-125.76 128.35,-120.26 132,-130.21 137.4,-125.76"/>
<text text-anchor="middle" x="167.5" y="-188.3" font-family="Times New Roman,serif" font-size="14.00">5</text>
</g>
<!-- 10 -->
<g id="node10" class="node">
<title>10</title>
<ellipse fill="none" stroke="black" cx="27" cy="-561" rx="27" ry="18"/>
<text text-anchor="middle" x="27" y="-557.3" font-family="Times New Roman,serif" font-size="14.00">10</text>
</g>
<!-- 10&#45;&gt;2 -->
<g id="edge17" class="edge">
<title>10&#45;&gt;2</title>
<path fill="none" stroke="black" d="M21.94,-543.24C17.25,-526.22 11,-499.03 11,-475 11,-475 11,-475 11,-299 11,-266.12 33.68,-234.53 51.83,-214.52"/>
<polygon fill="black" stroke="black" points="54.43,-216.87 58.75,-207.19 49.34,-212.06 54.43,-216.87"/>
<text text-anchor="middle" x="14.5" y="-383.3" font-family="Times New Roman,serif" font-size="14.00">1</text>
</g>
<!-- 10&#45;&gt;7 -->
<g id="edge16" class="edge">
<title>10&#45;&gt;7</title>
<path fill="none" stroke="black" d="M34.52,-543.61C40.13,-531.38 47.9,-514.44 54.32,-500.46"/>
<polygon fill="black" stroke="black" points="57.51,-501.89 58.5,-491.34 51.15,-498.97 57.51,-501.89"/>
<text text-anchor="middle" x="52.5" y="-513.8" font-family="Times New Roman,serif" font-size="14.00">1</text>
</g>
</g>
</svg>
