<?xml version="1.0" encoding="UTF-8" standalone="no"?>
<!DOCTYPE svg PUBLIC "-//W3C//DTD SVG 1.1//EN"
 "http://www.w3.org/Graphics/SVG/1.1/DTD/svg11.dtd">
<!-- Generated by graphviz version 3.0.0 (20220226.1711)
 -->
<!-- Pages: 1 -->
<svg width="383pt" height="305pt"
 viewBox="0.00 0.00 383.00 305.00" xmlns="http://www.w3.org/2000/svg" xmlns:xlink="http://www.w3.org/1999/xlink">
<g id="graph0" class="graph" transform="scale(1 1) rotate(0) translate(4 301)">
<polygon fill="white" stroke="transparent" points="-4,4 -4,-301 379,-301 379,4 -4,4"/>
<!-- 1 -->
<g id="node1" class="node">
<title>1</title>
<ellipse fill="none" stroke="black" cx="27" cy="-105" rx="27" ry="18"/>
<text text-anchor="middle" x="27" y="-101.3" font-family="Times New Roman,serif" font-size="14.00">1</text>
</g>
<!-- 10 -->
<g id="node10" class="node">
<title>10</title>
<ellipse fill="none" stroke="black" cx="88" cy="-18" rx="27" ry="18"/>
<text text-anchor="middle" x="88" y="-14.3" font-family="Times New Roman,serif" font-size="14.00">10</text>
</g>
<!-- 1&#45;&gt;10 -->
<g id="edge1" class="edge">
<title>1&#45;&gt;10</title>
<path fill="none" stroke="black" d="M38.19,-88.41C47.3,-75.71 60.33,-57.56 70.77,-43.01"/>
<polygon fill="black" stroke="black" points="73.9,-44.66 76.88,-34.49 68.21,-40.58 73.9,-44.66"/>
<text text-anchor="middle" x="65.5" y="-57.8" font-family="Times New Roman,serif" font-size="14.00">2</text>
</g>
<!-- 2 -->
<g id="node2" class="node">
<title>2</title>
<ellipse fill="none" stroke="black" cx="276" cy="-279" rx="27" ry="18"/>
<text text-anchor="middle" x="276" y="-275.3" font-family="Times New Roman,serif" font-size="14.00">2</text>
</g>
<!-- 3 -->
<g id="node3" class="node">
<title>3</title>
<ellipse fill="none" stroke="black" cx="348" cy="-279" rx="27" ry="18"/>
<text text-anchor="middle" x="348" y="-275.3" font-family="Times New Roman,serif" font-size="14.00">3</text>
</g>
<!-- 4 -->
<g id="node4" class="node">
<title>4</title>
<ellipse fill="none" stroke="black" cx="99" cy="-105" rx="27" ry="18"/>
<text text-anchor="middle" x="99" y="-101.3" font-family="Times New Roman,serif" font-size="14.00">4</text>
</g>
<!-- 5 -->
<g id="node5" class="node">
<title>5</title>
<ellipse fill="none" stroke="black" cx="243" cy="-105" rx="27" ry="18"/>
<text text-anchor="middle" x="243" y="-101.3" font-family="Times New Roman,serif" font-size="14.00">5</text>
</g>
<!-- 5&#45;&gt;10 -->
<g id="edge2" class="edge">
<title>5&#45;&gt;10</title>
<path fill="none" stroke="black" d="M222.74,-92.89C195.82,-78.12 148.08,-51.95 117.25,-35.04"/>
<polygon fill="black" stroke="black" points="118.72,-31.85 108.27,-30.11 115.35,-37.99 118.72,-31.85"/>
<text text-anchor="middle" x="177.5" y="-57.8" font-family="Times New Roman,serif" font-size="14.00">4</text>
</g>
<!-- 6 -->
<g id="node6" class="node">
<title>6</title>
<ellipse fill="none" stroke="black" cx="132" cy="-192" rx="27" ry="18"/>
<text text-anchor="middle" x="132" y="-188.3" font-family="Times New Roman,serif" font-size="14.00">6</text>
</g>
<!-- 6&#45;&gt;4 -->
<g id="edge4" class="edge">
<title>6&#45;&gt;4</title>
<path fill="none" stroke="black" d="M125.48,-174.21C120.82,-162.22 114.47,-145.85 109.16,-132.16"/>
<polygon fill="black" stroke="black" points="112.39,-130.81 105.51,-122.76 105.86,-133.35 112.39,-130.81"/>
<text text-anchor="middle" x="121.5" y="-144.8" font-family="Times New Roman,serif" font-size="14.00">1</text>
</g>
<!-- 9 -->
<g id="node9" class="node">
<title>9</title>
<ellipse fill="none" stroke="black" cx="171" cy="-105" rx="27" ry="18"/>
<text text-anchor="middle" x="171" y="-101.3" font-family="Times New Roman,serif" font-size="14.00">9</text>
</g>
<!-- 6&#45;&gt;9 -->
<g id="edge3" class="edge">
<title>6&#45;&gt;9</title>
<path fill="none" stroke="black" d="M139.52,-174.61C145.13,-162.38 152.9,-145.44 159.32,-131.46"/>
<polygon fill="black" stroke="black" points="162.51,-132.89 163.5,-122.34 156.15,-129.97 162.51,-132.89"/>
<text text-anchor="middle" x="156.5" y="-144.8" font-family="Times New Roman,serif" font-size="14.00">1</text>
</g>
<!-- 7 -->
<g id="node7" class="node">
<title>7</title>
<ellipse fill="none" stroke="black" cx="204" cy="-279" rx="27" ry="18"/>
<text text-anchor="middle" x="204" y="-275.3" font-family="Times New Roman,serif" font-size="14.00">7</text>
</g>
<!-- 8 -->
<g id="node8" class="node">
<title>8</title>
<ellipse fill="none" stroke="black" cx="204" cy="-192" rx="27" ry="18"/>
<text text-anchor="middle" x="204" y="-188.3" font-family="Times New Roman,serif" font-size="14.00">8</text>
</g>
<!-- 7&#45;&gt;8 -->
<g id="edge5" class="edge">
<title>7&#45;&gt;8</title>
<path fill="none" stroke="black" d="M204,-260.8C204,-249.16 204,-233.55 204,-220.24"/>
<polygon fill="black" stroke="black" points="207.5,-220.18 204,-210.18 200.5,-220.18 207.5,-220.18"/>
<text text-anchor="middle" x="207.5" y="-231.8" font-family="Times New Roman,serif" font-size="14.00">1</text>
</g>
<!-- 8&#45;&gt;5 -->
<g id="edge6" class="edge">
<title>8&#45;&gt;5</title>
<path fill="none" stroke="black" d="M211.52,-174.61C217.13,-162.38 224.9,-145.44 231.32,-131.46"/>
<polygon fill="black" stroke="black" points="234.51,-132.89 235.5,-122.34 228.15,-129.97 234.51,-132.89"/>
<text text-anchor="middle" x="228.5" y="-144.8" font-family="Times New Roman,serif" font-size="14.00">5</text>
</g>
<!-- 8&#45;&gt;9 -->
<g id="edge7" class="edge">
<title>8&#45;&gt;9</title>
<path fill="none" stroke="black" d="M197.48,-174.21C192.82,-162.22 186.47,-145.85 181.16,-132.16"/>
<polygon fill="black" stroke="black" points="184.39,-130.81 177.51,-122.76 177.86,-133.35 184.39,-130.81"/>
<text text-anchor="middle" x="192.5" y="-144.8" font-family="Times New Roman,serif" font-size="14.00">3</text>
</g>
</g>
</svg>
