<?xml version="1.0" encoding="UTF-8" standalone="no"?>
<!DOCTYPE svg PUBLIC "-//W3C//DTD SVG 1.1//EN"
 "http://www.w3.org/Graphics/SVG/1.1/DTD/svg11.dtd">
<!-- Generated by graphviz version 3.0.0 (20220226.1711)
 -->
<!-- Pages: 1 -->
<svg width="314pt" height="479pt"
 viewBox="0.00 0.00 314.00 479.00" xmlns="http://www.w3.org/2000/svg" xmlns:xlink="http://www.w3.org/1999/xlink">
<g id="graph0" class="graph" transform="scale(1 1) rotate(0) translate(4 475)">
<polygon fill="white" stroke="transparent" points="-4,4 -4,-475 310,-475 310,4 -4,4"/>
<!-- 1 -->
<g id="node1" class="node">
<title>1</title>
<ellipse fill="none" stroke="black" cx="27" cy="-18" rx="27" ry="18"/>
<text text-anchor="middle" x="27" y="-14.3" font-family="Times New Roman,serif" font-size="14.00">1</text>
</g>
<!-- 2 -->
<g id="node2" class="node">
<title>2</title>
<ellipse fill="none" stroke="black" cx="63" cy="-453" rx="27" ry="18"/>
<text text-anchor="middle" x="63" y="-449.3" font-family="Times New Roman,serif" font-size="14.00">2</text>
</g>
<!-- 5 -->
<g id="node5" class="node">
<title>5</title>
<ellipse fill="none" stroke="black" cx="63" cy="-366" rx="27" ry="18"/>
<text text-anchor="middle" x="63" y="-362.3" font-family="Times New Roman,serif" font-size="14.00">5</text>
</g>
<!-- 2&#45;&gt;5 -->
<g id="edge1" class="edge">
<title>2&#45;&gt;5</title>
<path fill="none" stroke="black" d="M63,-434.8C63,-423.16 63,-407.55 63,-394.24"/>
<polygon fill="black" stroke="black" points="66.5,-394.18 63,-384.18 59.5,-394.18 66.5,-394.18"/>
<text text-anchor="middle" x="66.5" y="-405.8" font-family="Times New Roman,serif" font-size="14.00">5</text>
</g>
<!-- 3 -->
<g id="node3" class="node">
<title>3</title>
<ellipse fill="none" stroke="black" cx="135" cy="-453" rx="27" ry="18"/>
<text text-anchor="middle" x="135" y="-449.3" font-family="Times New Roman,serif" font-size="14.00">3</text>
</g>
<!-- 4 -->
<g id="node4" class="node">
<title>4</title>
<ellipse fill="none" stroke="black" cx="207" cy="-453" rx="27" ry="18"/>
<text text-anchor="middle" x="207" y="-449.3" font-family="Times New Roman,serif" font-size="14.00">4</text>
</g>
<!-- 6 -->
<g id="node6" class="node">
<title>6</title>
<ellipse fill="none" stroke="black" cx="63" cy="-279" rx="27" ry="18"/>
<text text-anchor="middle" x="63" y="-275.3" font-family="Times New Roman,serif" font-size="14.00">6</text>
</g>
<!-- 5&#45;&gt;6 -->
<g id="edge2" class="edge">
<title>5&#45;&gt;6</title>
<path fill="none" stroke="black" d="M63,-347.8C63,-336.16 63,-320.55 63,-307.24"/>
<polygon fill="black" stroke="black" points="66.5,-307.18 63,-297.18 59.5,-307.18 66.5,-307.18"/>
<text text-anchor="middle" x="66.5" y="-318.8" font-family="Times New Roman,serif" font-size="14.00">1</text>
</g>
<!-- 8 -->
<g id="node8" class="node">
<title>8</title>
<ellipse fill="none" stroke="black" cx="63" cy="-192" rx="27" ry="18"/>
<text text-anchor="middle" x="63" y="-188.3" font-family="Times New Roman,serif" font-size="14.00">8</text>
</g>
<!-- 6&#45;&gt;8 -->
<g id="edge3" class="edge">
<title>6&#45;&gt;8</title>
<path fill="none" stroke="black" d="M63,-260.8C63,-249.16 63,-233.55 63,-220.24"/>
<polygon fill="black" stroke="black" points="66.5,-220.18 63,-210.18 59.5,-220.18 66.5,-220.18"/>
<text text-anchor="middle" x="66.5" y="-231.8" font-family="Times New Roman,serif" font-size="14.00">2</text>
</g>
<!-- 7 -->
<g id="node7" class="node">
<title>7</title>
<ellipse fill="none" stroke="black" cx="279" cy="-453" rx="27" ry="18"/>
<text text-anchor="middle" x="279" y="-449.3" font-family="Times New Roman,serif" font-size="14.00">7</text>
</g>
<!-- 10 -->
<g id="node10" class="node">
<title>10</title>
<ellipse fill="none" stroke="black" cx="63" cy="-105" rx="27" ry="18"/>
<text text-anchor="middle" x="63" y="-101.3" font-family="Times New Roman,serif" font-size="14.00">10</text>
</g>
<!-- 8&#45;&gt;10 -->
<g id="edge4" class="edge">
<title>8&#45;&gt;10</title>
<path fill="none" stroke="black" d="M63,-173.8C63,-162.16 63,-146.55 63,-133.24"/>
<polygon fill="black" stroke="black" points="66.5,-133.18 63,-123.18 59.5,-133.18 66.5,-133.18"/>
<text text-anchor="middle" x="66.5" y="-144.8" font-family="Times New Roman,serif" font-size="14.00">2</text>
</g>
<!-- 9 -->
<g id="node9" class="node">
<title>9</title>
<ellipse fill="none" stroke="black" cx="99" cy="-18" rx="27" ry="18"/>
<text text-anchor="middle" x="99" y="-14.3" font-family="Times New Roman,serif" font-size="14.00">9</text>
</g>
<!-- 10&#45;&gt;1 -->
<g id="edge5" class="edge">
<title>10&#45;&gt;1</title>
<path fill="none" stroke="black" d="M55.89,-87.21C50.78,-75.14 43.79,-58.64 37.97,-44.89"/>
<polygon fill="black" stroke="black" points="41.1,-43.31 33.98,-35.47 34.65,-46.04 41.1,-43.31"/>
<text text-anchor="middle" x="51.5" y="-57.8" font-family="Times New Roman,serif" font-size="14.00">4</text>
</g>
<!-- 10&#45;&gt;9 -->
<g id="edge6" class="edge">
<title>10&#45;&gt;9</title>
<path fill="none" stroke="black" d="M70.11,-87.21C75.22,-75.14 82.21,-58.64 88.03,-44.89"/>
<polygon fill="black" stroke="black" points="91.35,-46.04 92.02,-35.47 84.9,-43.31 91.35,-46.04"/>
<text text-anchor="middle" x="86.5" y="-57.8" font-family="Times New Roman,serif" font-size="14.00">1</text>
</g>
</g>
</svg>
