<?xml version="1.0" encoding="UTF-8" standalone="no"?>
<!DOCTYPE svg PUBLIC "-//W3C//DTD SVG 1.1//EN"
 "http://www.w3.org/Graphics/SVG/1.1/DTD/svg11.dtd">
<!-- Generated by graphviz version 3.0.0 (20220226.1711)
 -->
<!-- Pages: 1 -->
<svg width="638pt" height="131pt"
 viewBox="0.00 0.00 638.00 131.00" xmlns="http://www.w3.org/2000/svg" xmlns:xlink="http://www.w3.org/1999/xlink">
<g id="graph0" class="graph" transform="scale(1 1) rotate(0) translate(4 127)">
<polygon fill="white" stroke="transparent" points="-4,4 -4,-127 634,-127 634,4 -4,4"/>
<!-- 1 -->
<g id="node1" class="node">
<title>1</title>
<ellipse fill="none" stroke="black" cx="27" cy="-105" rx="27" ry="18"/>
<text text-anchor="middle" x="27" y="-101.3" font-family="Times New Roman,serif" font-size="14.00">1</text>
</g>
<!-- 2 -->
<g id="node2" class="node">
<title>2</title>
<ellipse fill="none" stroke="black" cx="99" cy="-105" rx="27" ry="18"/>
<text text-anchor="middle" x="99" y="-101.3" font-family="Times New Roman,serif" font-size="14.00">2</text>
</g>
<!-- 3 -->
<g id="node3" class="node">
<title>3</title>
<ellipse fill="none" stroke="black" cx="171" cy="-105" rx="27" ry="18"/>
<text text-anchor="middle" x="171" y="-101.3" font-family="Times New Roman,serif" font-size="14.00">3</text>
</g>
<!-- 4 -->
<g id="node4" class="node">
<title>4</title>
<ellipse fill="none" stroke="black" cx="243" cy="-105" rx="27" ry="18"/>
<text text-anchor="middle" x="243" y="-101.3" font-family="Times New Roman,serif" font-size="14.00">4</text>
</g>
<!-- 8 -->
<g id="node8" class="node">
<title>8</title>
<ellipse fill="none" stroke="black" cx="243" cy="-18" rx="27" ry="18"/>
<text text-anchor="middle" x="243" y="-14.3" font-family="Times New Roman,serif" font-size="14.00">8</text>
</g>
<!-- 4&#45;&gt;8 -->
<g id="edge1" class="edge">
<title>4&#45;&gt;8</title>
<path fill="none" stroke="black" d="M243,-86.8C243,-75.16 243,-59.55 243,-46.24"/>
<polygon fill="black" stroke="black" points="246.5,-46.18 243,-36.18 239.5,-46.18 246.5,-46.18"/>
<text text-anchor="middle" x="246.5" y="-57.8" font-family="Times New Roman,serif" font-size="14.00">3</text>
</g>
<!-- 5 -->
<g id="node5" class="node">
<title>5</title>
<ellipse fill="none" stroke="black" cx="315" cy="-105" rx="27" ry="18"/>
<text text-anchor="middle" x="315" y="-101.3" font-family="Times New Roman,serif" font-size="14.00">5</text>
</g>
<!-- 6 -->
<g id="node6" class="node">
<title>6</title>
<ellipse fill="none" stroke="black" cx="387" cy="-105" rx="27" ry="18"/>
<text text-anchor="middle" x="387" y="-101.3" font-family="Times New Roman,serif" font-size="14.00">6</text>
</g>
<!-- 7 -->
<g id="node7" class="node">
<title>7</title>
<ellipse fill="none" stroke="black" cx="459" cy="-105" rx="27" ry="18"/>
<text text-anchor="middle" x="459" y="-101.3" font-family="Times New Roman,serif" font-size="14.00">7</text>
</g>
<!-- 9 -->
<g id="node9" class="node">
<title>9</title>
<ellipse fill="none" stroke="black" cx="531" cy="-105" rx="27" ry="18"/>
<text text-anchor="middle" x="531" y="-101.3" font-family="Times New Roman,serif" font-size="14.00">9</text>
</g>
<!-- 10 -->
<g id="node10" class="node">
<title>10</title>
<ellipse fill="none" stroke="black" cx="603" cy="-105" rx="27" ry="18"/>
<text text-anchor="middle" x="603" y="-101.3" font-family="Times New Roman,serif" font-size="14.00">10</text>
</g>
</g>
</svg>
