<?xml version="1.0" encoding="UTF-8" standalone="no"?>
<!DOCTYPE svg PUBLIC "-//W3C//DTD SVG 1.1//EN"
 "http://www.w3.org/Graphics/SVG/1.1/DTD/svg11.dtd">
<!-- Generated by graphviz version 3.0.0 (20220226.1711)
 -->
<!-- Pages: 1 -->
<svg width="278pt" height="392pt"
 viewBox="0.00 0.00 278.00 392.00" xmlns="http://www.w3.org/2000/svg" xmlns:xlink="http://www.w3.org/1999/xlink">
<g id="graph0" class="graph" transform="scale(1 1) rotate(0) translate(4 388)">
<polygon fill="white" stroke="transparent" points="-4,4 -4,-388 274,-388 274,4 -4,4"/>
<!-- 1 -->
<g id="node1" class="node">
<title>1</title>
<ellipse fill="none" stroke="black" cx="63" cy="-192" rx="27" ry="18"/>
<text text-anchor="middle" x="63" y="-188.3" font-family="Times New Roman,serif" font-size="14.00">1</text>
</g>
<!-- 7 -->
<g id="node7" class="node">
<title>7</title>
<ellipse fill="none" stroke="black" cx="63" cy="-105" rx="27" ry="18"/>
<text text-anchor="middle" x="63" y="-101.3" font-family="Times New Roman,serif" font-size="14.00">7</text>
</g>
<!-- 1&#45;&gt;7 -->
<g id="edge1" class="edge">
<title>1&#45;&gt;7</title>
<path fill="none" stroke="black" d="M63,-173.8C63,-162.16 63,-146.55 63,-133.24"/>
<polygon fill="black" stroke="black" points="66.5,-133.18 63,-123.18 59.5,-133.18 66.5,-133.18"/>
<text text-anchor="middle" x="66.5" y="-144.8" font-family="Times New Roman,serif" font-size="14.00">3</text>
</g>
<!-- 2 -->
<g id="node2" class="node">
<title>2</title>
<ellipse fill="none" stroke="black" cx="171" cy="-366" rx="27" ry="18"/>
<text text-anchor="middle" x="171" y="-362.3" font-family="Times New Roman,serif" font-size="14.00">2</text>
</g>
<!-- 3 -->
<g id="node3" class="node">
<title>3</title>
<ellipse fill="none" stroke="black" cx="243" cy="-279" rx="27" ry="18"/>
<text text-anchor="middle" x="243" y="-275.3" font-family="Times New Roman,serif" font-size="14.00">3</text>
</g>
<!-- 5 -->
<g id="node5" class="node">
<title>5</title>
<ellipse fill="none" stroke="black" cx="243" cy="-192" rx="27" ry="18"/>
<text text-anchor="middle" x="243" y="-188.3" font-family="Times New Roman,serif" font-size="14.00">5</text>
</g>
<!-- 3&#45;&gt;5 -->
<g id="edge2" class="edge">
<title>3&#45;&gt;5</title>
<path fill="none" stroke="black" d="M243,-260.8C243,-249.16 243,-233.55 243,-220.24"/>
<polygon fill="black" stroke="black" points="246.5,-220.18 243,-210.18 239.5,-220.18 246.5,-220.18"/>
<text text-anchor="middle" x="246.5" y="-231.8" font-family="Times New Roman,serif" font-size="14.00">4</text>
</g>
<!-- 4 -->
<g id="node4" class="node">
<title>4</title>
<ellipse fill="none" stroke="black" cx="243" cy="-366" rx="27" ry="18"/>
<text text-anchor="middle" x="243" y="-362.3" font-family="Times New Roman,serif" font-size="14.00">4</text>
</g>
<!-- 4&#45;&gt;3 -->
<g id="edge3" class="edge">
<title>4&#45;&gt;3</title>
<path fill="none" stroke="black" d="M243,-347.8C243,-336.16 243,-320.55 243,-307.24"/>
<polygon fill="black" stroke="black" points="246.5,-307.18 243,-297.18 239.5,-307.18 246.5,-307.18"/>
<text text-anchor="middle" x="246.5" y="-318.8" font-family="Times New Roman,serif" font-size="14.00">3</text>
</g>
<!-- 6 -->
<g id="node6" class="node">
<title>6</title>
<ellipse fill="none" stroke="black" cx="27" cy="-366" rx="27" ry="18"/>
<text text-anchor="middle" x="27" y="-362.3" font-family="Times New Roman,serif" font-size="14.00">6</text>
</g>
<!-- 9 -->
<g id="node9" class="node">
<title>9</title>
<ellipse fill="none" stroke="black" cx="63" cy="-279" rx="27" ry="18"/>
<text text-anchor="middle" x="63" y="-275.3" font-family="Times New Roman,serif" font-size="14.00">9</text>
</g>
<!-- 6&#45;&gt;9 -->
<g id="edge4" class="edge">
<title>6&#45;&gt;9</title>
<path fill="none" stroke="black" d="M34.11,-348.21C39.22,-336.14 46.21,-319.64 52.03,-305.89"/>
<polygon fill="black" stroke="black" points="55.35,-307.04 56.02,-296.47 48.9,-304.31 55.35,-307.04"/>
<text text-anchor="middle" x="51.5" y="-318.8" font-family="Times New Roman,serif" font-size="14.00">5</text>
</g>
<!-- 10 -->
<g id="node10" class="node">
<title>10</title>
<ellipse fill="none" stroke="black" cx="63" cy="-18" rx="27" ry="18"/>
<text text-anchor="middle" x="63" y="-14.3" font-family="Times New Roman,serif" font-size="14.00">10</text>
</g>
<!-- 7&#45;&gt;10 -->
<g id="edge5" class="edge">
<title>7&#45;&gt;10</title>
<path fill="none" stroke="black" d="M63,-86.8C63,-75.16 63,-59.55 63,-46.24"/>
<polygon fill="black" stroke="black" points="66.5,-46.18 63,-36.18 59.5,-46.18 66.5,-46.18"/>
<text text-anchor="middle" x="66.5" y="-57.8" font-family="Times New Roman,serif" font-size="14.00">2</text>
</g>
<!-- 8 -->
<g id="node8" class="node">
<title>8</title>
<ellipse fill="none" stroke="black" cx="99" cy="-366" rx="27" ry="18"/>
<text text-anchor="middle" x="99" y="-362.3" font-family="Times New Roman,serif" font-size="14.00">8</text>
</g>
<!-- 8&#45;&gt;9 -->
<g id="edge6" class="edge">
<title>8&#45;&gt;9</title>
<path fill="none" stroke="black" d="M91.89,-348.21C86.78,-336.14 79.79,-319.64 73.97,-305.89"/>
<polygon fill="black" stroke="black" points="77.1,-304.31 69.98,-296.47 70.65,-307.04 77.1,-304.31"/>
<text text-anchor="middle" x="87.5" y="-318.8" font-family="Times New Roman,serif" font-size="14.00">4</text>
</g>
<!-- 9&#45;&gt;1 -->
<g id="edge7" class="edge">
<title>9&#45;&gt;1</title>
<path fill="none" stroke="black" d="M63,-260.8C63,-249.16 63,-233.55 63,-220.24"/>
<polygon fill="black" stroke="black" points="66.5,-220.18 63,-210.18 59.5,-220.18 66.5,-220.18"/>
<text text-anchor="middle" x="66.5" y="-231.8" font-family="Times New Roman,serif" font-size="14.00">1</text>
</g>
</g>
</svg>
